<?xml version="1.0" encoding="UTF-8"?>
<svg id="Livello_1" xmlns="http://www.w3.org/2000/svg" version="1.1" xmlns:xlink="http://www.w3.org/1999/xlink" viewBox="0 0 1380.9 1380.9">
  <!-- Generator: Adobe Illustrator 29.0.0, SVG Export Plug-In . SVG Version: 2.1.0 Build 186)  -->
  <defs>
    <style>
      .st0, .st1 {
        isolation: isolate;
      }

      .st2, .st3, .st4 {
        display: none;
      }

      .st2, .st5 {
        fill: #fb6068;
      }

      .st6 {
        fill: #992c3a;
      }

      .st7 {
        fill: #ce414e;
      }

      .st1 {
        fill: url(#Sfumatura_senza_nome_11);
        mix-blend-mode: overlay;
        opacity: .2;
      }

      .st4 {
        fill: url(#Sfumatura_senza_nome);
      }

      .st8 {
        fill: #f5e590;
      }
    </style>
    <radialGradient id="Sfumatura_senza_nome" data-name="Sfumatura senza nome" cx="690.4" cy="692.4" fx="195.5" fy="692.4" r="730.2" gradientTransform="translate(0 1382.9) scale(1 -1)" gradientUnits="userSpaceOnUse">
      <stop offset="0" stop-color="#f5e590"/>
      <stop offset="1" stop-color="#f5e590" stop-opacity="0"/>
    </radialGradient>
    <radialGradient id="Sfumatura_senza_nome_11" data-name="Sfumatura senza nome 11" cx="690.4" cy="692.4" fx="690.4" fy="692.4" r="690.4" gradientTransform="translate(0 1382.9) scale(1 -1)" gradientUnits="userSpaceOnUse">
      <stop offset="0" stop-color="#000"/>
      <stop offset="1" stop-color="#000" stop-opacity="0"/>
    </radialGradient>
  </defs>
  <g class="st0">
    <g id="Livello_11" data-name="Livello_1">
      <g class="st3">
        <path class="st5" d="M-1615.3,651.3h0c24.9,0,43.7-6.5,56.3-19.5,12.6-13,19-31.2,19-54.8s-6.3-42-19-55-31.5-19.3-56.5-19.3h-60v95.8h39.5v-63.7h20.9c22.8,0,34.2,14.1,34.2,42.2s-11.3,42.2-34.1,42.2h-111.1l33.6-33.6-9.4-9.4c-7.4-7.4-19.3-7.4-26.7,0l-45.5,45.5c-7.5,7.5-7.5,19.6,0,27l56.9,56.9c7.4,7.4,19.3,7.4,26.7,0l9.3-9.4-45-45h110.7,0Z"/>
        <rect class="st5" x="-1360.7" y="502.7" width="39.5" height="148.6"/>
        <polygon class="st5" points="-1465.6 677.8 -1514.9 826.4 -1474.5 826.4 -1443.9 721.5 -1439.5 704.1 -1435.2 721.5 -1404.1 826.4 -1361.7 826.4 -1413.2 677.8 -1465.6 677.8"/>
        <polygon class="st5" points="-1540.8 677.8 -1570.7 778.6 -1601.4 677.8 -1644.3 677.8 -1595 826.4 -1546.6 826.4 -1499.4 677.8 -1540.8 677.8"/>
        <path class="st5" d="M-1205.5,680.4h0l-56.9-56.9c-7.4-7.4-19.3-7.4-26.7,0l-9.3,9.4,45,45h-90v148.6h39.5v-116.5h50.5l-33.6,33.6,9.4,9.4c7.4,7.4,19.3,7.4,26.7,0l45.5-45.5c7.5-7.5,7.5-19.6,0-27h0Z"/>
        <polygon class="st5" points="-1461.1 546.4 -1456.7 529 -1452.4 546.4 -1421.2 651.3 -1378.9 651.3 -1430.3 502.7 -1482.8 502.7 -1532.1 651.3 -1491.7 651.3 -1461.1 546.4"/>
      </g>
      <rect class="st2" x="-589.6" y="-29.6" width="2560" height="1440"/>
      <rect class="st4" x="-589.6" y="-29.6" width="2560" height="1440"/>
      <path class="st1" d="M1380.9,623.1l-535.3,45.6c-10.7.9-13.7-14.3-3.5-17.5l512.1-162.7-51.5-124.4-477.1,247c-9.5,4.9-18.2-8-9.9-14.9l410.8-346.3-95.2-95.2-346.3,410.8c-6.9,8.2-19.8-.4-14.9-9.9l247-477.1-124.4-51.5-162.7,512.1c-3.2,10.2-18.5,7.2-17.6-3.5L757.8,0h-134.7l45.6,535.3c.9,10.7-14.3,13.7-17.6,3.5L488.4,26.8l-124.4,51.5,247,477.1c4.9,9.5-8,18.2-14.9,9.9L249.8,154.6l-95.2,95.2,410.8,346.3c8.2,6.9-.4,19.8-9.9,14.9L78.3,364l-51.5,124.4,512.1,162.7c10.2,3.2,7.2,18.5-3.5,17.5L0,623.1v134.7l535.3-45.6c10.7-.9,13.7,14.3,3.5,17.5L26.8,892.5l51.5,124.4,477.1-247c9.5-4.9,18.2,8,9.9,14.9l-410.8,346.3,95.2,95.2,346.3-410.8c6.9-8.2,19.8.4,14.9,9.9l-247,477.1,124.4,51.5,162.7-512.1c3.2-10.2,18.5-7.2,17.6,3.5l-45.6,535.4h134.7l-45.6-535.3c-.9-10.7,14.3-13.7,17.6-3.5l162.7,512.1,124.4-51.5-247-477.1c-4.9-9.5,8-18.2,14.9-9.9l346.3,410.8,95.2-95.2-410.8-346.3c-8.2-6.9.4-19.8,9.9-14.9l477.1,247,51.5-124.4-512.1-162.7c-10.2-3.2-7.2-18.5,3.5-17.5l535.3,45.6v-134.7h0ZM690.4,690.4h0Z"/>
      <g class="st3">
        <path class="st7" d="M-817.1,1221.6S-147.5,310.3,62.5,310.3s1351.1,1254.4,1351.1,1254.4l-2321.9,33.3,91.1-376.4h0Z"/>
        <path class="st7" d="M2328.9,1368.4s-545.2-807.7-957.8-807.7S98.2,1711.6,98.2,1711.6l2321.9,33.3-91.1-376.4h0Z"/>
        <path class="st5" d="M766.2,886.8h38.9c67.2,54.7,133.2,129.2,146.7,195.2,17,83-243.5,118.9-286.9,160.4s9.4,154,58.5,183.7h-279.3s-102.6-233,101.8-273.2c332.2-65.4,387.5-44.2,220.2-266h0Z"/>
      </g>
      <g class="st3">
        <path class="st6" d="M-270.8,1205.5l125.2,12.2-172.6-241.4,103.2,10s-113.2-110.3-228.5-306.9c-113.6,196.5-228.5,306.9-228.5,306.9l103.2-10-172.6,241.4,125.2-12.2-207.2,289.9,379.9-37,379.9,37-207.2-289.9h0Z"/>
        <path class="st6" d="M420,1280.5l92.8,9-127.9-178.9,76.5,7.4s-83.9-81.8-169.4-227.5c-84.2,145.7-169.4,227.5-169.4,227.5l76.5-7.4-127.9,178.9,92.8-9L10.4,1495.4l281.6-27.4,281.6,27.4-153.6-214.9h0Z"/>
        <path class="st6" d="M907.5,1380.5l69.7,6.8-96.1-134.5,57.5,5.6s-63.1-61.5-127.3-170.9c-63.3,109.5-127.3,170.9-127.3,170.9l57.5-5.6-96.1,134.5,69.7-6.8-115.4,161.5,211.7-20.6,211.7,20.6-115.4-161.5h0Z"/>
        <path class="st6" d="M1175.8,1297l99.1,9.6-136.6-191.1,81.7,7.9s-89.6-87.3-180.8-242.9c-89.9,155.6-180.8,242.9-180.8,242.9l81.7-7.9-136.6,191.1,99.1-9.6-164,229.4,300.7-29.3,300.7,29.3-164-229.4h0Z"/>
        <path class="st6" d="M2005.8,1297l99.1,9.6-136.6-191.1,81.7,7.9s-89.6-87.3-180.9-242.9c-89.9,155.6-180.9,242.9-180.9,242.9l81.7-7.9-136.6,191.1,99.1-9.6-164,229.4,300.7-29.3,300.7,29.3-164-229.4h0Z"/>
      </g>
      <g class="st3">
        <path class="st8" d="M573.3,678.1h0c23.2,0,40.7-6,52.5-18.1,11.8-12.1,17.7-29.2,17.7-51.2s-5.9-39.2-17.7-51.3c-11.8-12-29.4-18.1-52.7-18.1h-56v89.4h36.8v-59.4h19.5c21.3,0,32,13.1,32,39.4s-10.6,39.4-31.8,39.4h-103.6l31.4-31.4-8.7-8.7c-6.9-6.9-18-6.9-24.9,0l-42.5,42.5c-7,7-7,18.3,0,25.2l53.1,53.1c6.9,6.9,18,6.9,24.9,0l8.7-8.7-42-42h103.3Z"/>
        <rect class="st8" x="810.9" y="539.4" width="36.8" height="138.7"/>
        <polygon class="st8" points="713 702.8 666.9 841.5 704.7 841.5 733.2 743.6 737.4 727.4 741.3 743.6 770.4 841.5 809.9 841.5 761.9 702.8 713 702.8"/>
        <polygon class="st8" points="642.8 702.8 614.9 796.8 586.3 702.8 546.2 702.8 592.2 841.5 637.4 841.5 681.4 702.8 642.8 702.8"/>
        <path class="st8" d="M955.6,705.2h0l-53.1-53.1c-6.9-6.9-18-6.9-24.9,0l-8.7,8.7,42,42h-84v138.7h36.8v-108.7h47.1l-31.4,31.4,8.7,8.7c6.9,6.9,18,6.9,24.9,0l42.5-42.5c7-7,7-18.3,0-25.2h0Z"/>
        <polygon class="st8" points="717.2 580.2 721.3 564 725.3 580.2 754.4 678.1 793.9 678.1 745.9 539.4 697 539.4 650.9 678.1 688.6 678.1 717.2 580.2"/>
      </g>
      <g class="st3">
        <path class="st8" d="M-1401,177.3h0c23.2,0,40.7-6.1,52.5-18.1,11.8-12.1,17.7-29.2,17.7-51.2s-5.9-39.2-17.7-51.3c-11.8-12-29.4-18.1-52.7-18.1h-56v89.4h36.8v-59.4h19.5c21.3,0,32,13.1,32,39.4s-10.6,39.4-31.8,39.4h-103.6l31.4-31.4-8.7-8.7c-6.9-6.9-18-6.9-24.9,0l-42.5,42.5c-7,7-7,18.3,0,25.2l53.1,53.1c6.9,6.9,18,6.9,24.9,0l8.7-8.7-42-42h103.3Z"/>
        <rect class="st8" x="-1163.3" y="38.6" width="36.8" height="138.7"/>
        <polygon class="st8" points="-1261.2 202 -1307.3 340.7 -1269.5 340.7 -1241 242.8 -1236.9 226.6 -1232.9 242.8 -1203.8 340.7 -1164.3 340.7 -1212.3 202 -1261.2 202"/>
        <polygon class="st8" points="-1331.4 202 -1359.3 296 -1387.9 202 -1428 202 -1382 340.7 -1336.8 340.7 -1292.8 202 -1331.4 202"/>
        <path class="st8" d="M-1018.6,204.4h0l-53.1-53.1c-6.9-6.9-18-6.9-24.9,0l-8.7,8.7,42,42h-84v138.7h36.8v-108.7h47.1l-31.4,31.4,8.7,8.7c6.9,6.9,18,6.9,24.9,0l42.5-42.5c7-7,7-18.3,0-25.2h0Z"/>
        <polygon class="st8" points="-1257.1 79.4 -1252.9 63.2 -1248.9 79.4 -1219.9 177.2 -1180.3 177.2 -1228.3 38.6 -1277.3 38.6 -1323.3 177.2 -1285.6 177.2 -1257.1 79.4"/>
      </g>
    </g>
    <g id="Livello_2" class="st3">
      <path d="M1094.4-28.6v1438H286.4V-28.6h808M1095.4-29.6H285.4v1440h810V-29.6h0Z"/>
    </g>
  </g>
</svg>