<?xml version="1.0" encoding="UTF-8"?>
<svg id="Livello_1" xmlns="http://www.w3.org/2000/svg" version="1.1" xmlns:xlink="http://www.w3.org/1999/xlink" viewBox="0 0 2000 1392.3">
  <!-- Generator: Adobe Illustrator 29.0.0, SVG Export Plug-In . SVG Version: 2.1.0 Build 186)  -->
  <defs>
    <style>
      .st0 {
        isolation: isolate;
      }

      .st1 {
        fill: #a80000;
      }
    </style>
  </defs>
  <image class="st0" width="4032" height="3024" transform="translate(1305.9 161.7) rotate(90) scale(.2)" xlink:href="Willi_Logo-1.png"/>
  <g>
    <path d="M1522.1,131.2c-22.9,21.6-48,41.6-73.6,60.1-175.1,126.6-347.2,255.2-507.7,400.1-94.2,85-180.5,174.9-247.8,283-21.4,34.3-40.1,60.9-44.6,102.3-2.1,18.8,1.7,36.5-8.6,53.7-2.8,4.7-8.9,10.1-10.2,14.8-3.2,12.2-1.2,32.8-4.1,47.2-2.1,10.4-7.3,27.3-11.2,37.3s-17.3,31.3-18.6,39.6c-2.7,17.2-2.1,45.2-2.9,63.6-1.6,38,.4,80.5-2.7,117.8-1.3,15.1-11.2,38.9-28.4,40.9-55.9,6.7-58.8-45.3-60.4-86.6-3.3-86.5,2.7-175.1,0-261.8,1.4-13.8-14.5-30.3-16.4-40.4-2.6-13.9,9.5-27.2-2.2-43.5-11.7-16.3-26.2-13.7-37.2,1.4-15.4,20.9-28.4,57.9-42.4,82.4-15.8,27.8-33.7,55.3-57.5,77-22.1,20-46.6,32.4-57.2,63.4-3.2,9.3-2.6,22.3-6.2,29.8-6.9,14.2-27,21-35,44-4.4,12.6-7.7,43-9.1,57.5-2.4,24.2,2.3,34.4-17.1,54.2-32.8,33.5-83.6,15.6-86.9-32-2.3-32.5,1.5-66.1,1.5-98.4,0-46.2-1.2-92.6-1.5-138.6-.2-38.9,3.9-88.7-.1-126-1.9-17.6-13.1-25.1-17.2-38.3-3.9-12.6-2.5-29.9-5.4-43.1-2.8-12.6-12.9-23.5-14.5-36.8-5.5-44,3.1-98.1-1.5-144-1.5-14.5-12.8-25.5-14.9-36.4-2.1-11,1.9-25-.7-38.1-3.5-17.8-24.4-32.1-33.2-48.6-11.2-20.9-7.5-78.4-8-104.2-.9-41.5.5-83.4,0-124.7-.4-28-19.3-41.3-20.5-63.8-.2-3.3,2-6.1.8-10.8-1.1-4.2-9.7-13.1-12.4-18.1-10.4-19.2-7.3-37.7,4.7-55.4,2.3-3.3,5.7-5.5,7.9-8.8,11.1-17.3-.2-64.6,5.6-85.9l-1.3-8.1c.2-13.1-1.9-52.5,9-60.4,12.1-8.8,16.1,13.1,17.2,20.4,7.9,50.2,32.1,91.1,51.7,136.8,21.8,50.7,9.8,120.8,13.6,176.2,1.5,21.9,9.7,43.5,12.3,65.3,1.4,12.1-1.7,17.1,3.8,29.4,9.5,21.2,27.2,43.1,40.4,62.1,2.6,43.1,3.2,86.5,4.4,130,.5,18.9-1.2,80.5,3.5,93.5,4.7,12.8,15.8,26,19.7,39.9,2.9,10.3,1.2,20.5,3.6,31.1,2.3,10.4,6.7,17.8,7.8,29.7,3,35.4-2.7,73.6,3,109.2.9,20.5-1.4,42.2-.1,62.5.3,4.6,1.4,22.1,6.3,22.9,8.9,1.4,12.7-11.5,17.3-17.4,14.6-18.8,34.5-28.7,53.3-42.3,6.3-30.7,17.8-57,34.3-83.5,6.7-10.7,15.1-20.3,21.6-31,24.4-40,40.4-74.3,72.3-110.6,8.9-10.1,40.3-43.7,50-49.8,10.3-6.6,40.8-6.3,53.3-4.9,24.8,2.8,22.3,25.2,27.1,43.6,3.9,15.1,8.7,23.1,9.7,40.2.7,12.6-1.9,29.6.3,41.4.8,4.6,7.2,9.4,12.1,7.1,5.7-2.6,25.9-39.6,31.3-47.7,17.5-26.6,36.3-55.3,54.9-80.9,34.9-48.1,81.6-90.9,123.9-132.6,91.2-89.9,185.2-176.9,285.5-256.4,44.9-35.6,93.7-66.7,137.9-103.3,80.6-66.7,158.8-137.1,244.3-197.8,28.9-20.6,65.2-41.1,101.5-27.4,10.6,4,15.4,9.5,21.2,19,11.8,19.4,10.7,27.7,1,47.6-11.6,23.7-31.2,42.3-50.1,60.1h0Z"/>
    <path d="M1372.3,1163.8c-17.8-13-12.1-53.4-5.3-71.5,9-23.9,25.1-40.8,38.2-61.6.7-118.7-.5-237.7-1.5-356.2-.6-69.7.9-139.7-1.3-209.4-.4-11.2-.4-34.5-3-44.1-1.9-7-8-13.9-10.2-21.7-4.8-17.1-2.8-50.8-3.4-70-.5-15.7-5.2-38.7-.8-53.3,4.8-15.7,36.3-27.7,51.4-29,24.1-2.2,30.3,4.4,40.5,24.6,16.4,32.7,11.6,55.1,11.4,89.6-.9,236.9-1,475.2-2.8,710.9-.2,21,3.4,57-3.8,75.2-8.8,21.9-24,24.2-45.5,26.6-20.4,2.3-46.4,2.6-63.8-10.1h0Z"/>
    <path d="M1657,261.2c23.5-4,34.3,5.9,37.6,28.2,8.4,56,6.3,122,4.3,178.6-.7,21.1-4.8,42.4-2.7,63.8,2.2,23.5,8.6,36.8-.7,61.7-3.8,10.1-17.6,28.3-18.7,36.7-1.3,9.7,1.4,19.9,1.5,29.1.6,52.1-13.8,98.1-16.7,148.4-1.4,24.9,1,50.1,1.4,74.8.6,38.4.2,79.7-50.7,74.2-34.4-3.7-17.7-42.3-20.1-65.8-2-20-13-46.6-16.4-69.5-3.7-24.8-10-71.8-7.2-95.5,1.4-11.2,12.3-19.7,17.4-29.7,11.6-22.5,8.5-28.9,6.3-52.2-1.1-12,17.3-31.7,19.2-45.7,1.8-13.3-.6-30.4,0-44.3,1.7-34,15.1-61.5,16.8-95.5,2.4-49.3-13-127.7-1.1-171.6,3.4-12.7,17-23.5,29.8-25.6h0Z"/>
    <path d="M1884.1,1219.3c-21.3,28.2-14.2,36.1-18.9,67.7-4.4,29.3-26,20.3-47.8,21.5-19.2,1.1-48.7,10.6-61.1-8.1-37.8-56.9,25.5-102.9,42.1-153.7,1.8-5.5,2-11.4,3.9-16.9,12.1-36.5,31.6-65.4,37.9-103.4,4.2-25,7.5-56.3,8.6-81.5,1.7-39.8-3.6-84.6-.1-123.5,2.2-24.3,26.8-25.7,46.5-24.3,15.2,1.1,24.5,3.5,26.8,20.3,2.7,19.9.5,45.9,1.4,66.5,1.5,31.8,4.6,63.8,5.7,95.5,1.9,57.6-.5,105.4-8.4,162.2-6.2,45.1-11.2,44.2-36.6,77.7h0Z"/>
    <path d="M1062.4,793.3c5.9-1.2,32.5,2.6,39.5,4.2,16.7,3.9,31,21.6,35.8,37.7,5.7,19.4,1.5,38.9,1.3,58.2-.4,40.7,1.1,84.6-1.3,124.8-1.6,26.2-15,33.6-26.6,55.1-5.9,10.9-10.2,22.2-15,33.5-10.2,13.9-44.5,15.8-59.6,11.1-10.4-3.3-25.6-16.8-27.7-27.8-2.5-13.6-1.4-56.7,2.3-69.6,9.2-32.2,40.8-42.9,40.7-80,0-3.9-1.6-7.4-1.6-11-.1-42.7-.4-85.7.8-128.2,2.7-3.3,7.1-7.1,11.4-8h0Z"/>
    <path d="M1117.3,640.1c-9.6-8.9-10.9-29.2-11.6-41.8-.9-17.2-2.2-51.8,0-68,.2-1.5.2-3,1.3-4.2,11.4-6.2,25.6-4.3,37.5-8.2,21.6-7,60.3-43.3,83.2-24.9,3,2.4,4.5,6.2,5.5,9.7,4.5,16.5,5.1,80.3,2.9,98.3-.4,3.3-2.9,9.2-4.9,11.7-5,6.2-34.1,23.7-42.3,27-17.2,6.9-57.1,13.7-71.6.2h0Z"/>
    <path class="st1" d="M1822.8,557.5c18.8-27.6,62.4-58.2,98.4-52.8,32.4,4.5,79.9,44.3,78.7,79.2-1.5,42.8,6.4,78.6-29.2,103.5-25.2,18-96.8,10.7-126.5-9.5s-48.4-80.5-21.5-120.5h0Z"/>
  </g>
</svg>