<?xml version="1.0" encoding="UTF-8"?>
<svg xmlns="http://www.w3.org/2000/svg" version="1.1" viewBox="0 0 2000 2000">
  <!-- Generator: Adobe Illustrator 29.0.0, SVG Export Plug-In . SVG Version: 2.1.0 Build 186)  -->
  <defs>
    <style>
      .st0, .st1 {
        fill: #d4a373;
      }

      .st2, .st1 {
        display: none;
      }
    </style>
  </defs>
  <g id="Livello_1" class="st2">
    <g class="st2">
      <path class="st0" d="M1152.4,893.6c-26.3,0-43.7,10-52,30-8.4,20-12.6,48.3-12.6,84.9s4.2,64.9,12.6,84.9c8.4,20,25.7,30,52,30s43.7-10,52-30c8.4-20,12.6-48.3,12.6-84.9s-4.2-64.9-12.6-84.9c-8.4-20-25.7-30-52-30Z"/>
      <path class="st0" d="M1602.3,1234.6c5.2-71.5,8.4-149.8,8.4-234.6s-4.1-185.9-10.5-268.5c6.7-2.8,11.3-11.3,10.4-20.8l-13.9-141.7c-.9-9.7-7.4-16.9-15-16.9h-.4c-16.3-122.5-36.1-218.7-50.9-281.2-11.8-50-50.7-87.6-98.7-95.8-92.1-15.7-255.6-38.3-431.6-38.3s-339.5,22.6-431.6,38.3c-48,8.2-86.9,45.8-98.7,95.8-14.7,62.4-34.6,158.7-50.9,281.2h-.4c-7.6,0-14.1,7.3-15,16.9l-13.9,141.7c-.9,9.5,3.7,18,10.4,20.8-6.5,82.5-10.5,172.5-10.5,268.5s3.2,163.1,8.4,234.6c-5.5,3.8-9,12-8.2,21l13.9,151.1c.9,10.1,7.1,17.6,14.4,18,18.1,128.6,41,221.7,56.3,275.3,10.4,36.4,35.5,66,68.4,81,71.7,32.6,219.9,82.3,457.4,82.3s385.8-49.7,457.4-82.3c33-15,58.1-44.6,68.4-81,15.3-53.6,38.1-146.7,56.3-275.3,7.4-.4,13.5-8,14.4-18l13.9-151.1c.8-9-2.7-17.2-8.2-21ZM961.1,1162.2c-10.9,18.1-26.7,32.3-47.5,42.6-20.8,10.3-45.5,15.4-74.1,15.4-45.8,0-82.3-11.2-109.5-33.7-27.3-22.5-41.7-56.4-43.2-101.8h94.9c.4,16.8,5.1,30,14.3,39.7,9.1,9.7,22.5,14.6,40,14.6s26.4-4.3,34.6-12.9c8.2-8.6,12.3-19.9,12.3-34s-5.8-31.5-17.4-39.7c-11.6-8.2-30.2-12.3-55.8-12.3h-18.3v-79.5h18.3c19.4,0,35.2-3.3,47.2-10,12-6.7,18-18.6,18-35.7s-3.8-24.4-11.4-32c-7.6-7.6-18.1-11.4-31.5-11.4s-25.3,4.4-32.3,13.2c-7.1,8.8-11.2,19.6-12.3,32.6h-95.5c1.5-40.8,14.9-72.2,40-94.4,25.2-22.1,59.3-33.2,102.4-33.2s53.1,5,73.5,14.9c20.4,9.9,35.8,23.4,46.3,40.6,10.5,17.2,15.7,36.4,15.7,57.8s-6.3,45.7-18.9,61.5c-12.6,15.8-27.3,26.6-44,32.3v2.3c21.7,7.2,38.9,19.3,51.5,36,12.6,16.8,18.9,38.3,18.9,64.6s-5.4,44.5-16.3,62.6ZM1275.1,1159.3c-25.4,37.2-66.3,55.8-122.7,55.8s-97.3-18.6-122.7-55.8c-25.4-37.2-38-87.4-38-150.7s12.7-113.5,38-150.7c25.4-37.2,66.2-55.8,122.7-55.8s97.3,18.6,122.7,55.8c25.4,37.2,38,87.4,38,150.7s-12.7,113.5-38,150.7Z"/>
    </g>
    <g class="st2">
      <path class="st0" d="M1147.4,889.4c-26.4,0-43.9,10.1-52.3,30.2-8.4,20.1-12.6,48.6-12.6,85.3s4.2,65.2,12.6,85.3c8.4,20.1,25.9,30.2,52.3,30.2s43.9-10.1,52.3-30.2c8.4-20.1,12.6-48.6,12.6-85.3s-4.2-65.2-12.6-85.3c-8.4-20.1-25.9-30.2-52.3-30.2Z"/>
      <path class="st0" d="M1602.3,1234.6c5.2-71.5,8.4-149.8,8.4-234.6s-4.1-185.9-10.5-268.5c6.7-2.8,11.3-11.3,10.4-20.8l-13.9-141.7c-.9-9.7-7.4-16.9-15-16.9h-.4c-16.3-122.5-36.1-218.7-50.9-281.2-11.8-50-50.7-87.6-98.7-95.8-92.1-15.7-255.6-38.3-431.6-38.3s-339.5,22.6-431.6,38.3c-48,8.2-86.9,45.8-98.7,95.8-14.7,62.4-34.6,158.7-50.9,281.2h-.4c-7.6,0-14.1,7.3-15,16.9l-13.9,141.7c-.9,9.5,3.7,18,10.4,20.8-6.5,82.5-10.5,172.5-10.5,268.5s3.2,163.1,8.4,234.6c-5.5,3.8-9,12-8.2,21l13.9,151.1c.9,10.1,7.1,17.6,14.4,18,18.1,128.6,41,221.7,56.3,275.3,10.4,36.4,35.5,66,68.4,81,71.7,32.6,219.9,82.3,457.4,82.3s385.8-49.7,457.4-82.3c33-15,58.1-44.6,68.4-81,15.3-53.6,38.1-146.7,56.3-275.3,7.4-.4,13.5-8,14.4-18l13.9-151.1c.8-9-2.7-17.2-8.2-21ZM980.7,1208.3h-288.5v-73c11.5-9.6,17.6-14.6,18.4-14.9,36.8-30.6,65.9-55.6,87.3-75,21.4-19.3,39.5-39.4,54-60,14.6-20.7,21.8-40.4,21.8-59.2s-3.5-27.8-10.6-36.2c-7.1-8.4-17.7-12.6-31.9-12.6-29.1,0-44.2,20.9-45.4,62.6h-94.8c.8-32.6,7.8-59.8,21-81.6s30.6-37.9,52.3-48.3c21.6-10.3,45.7-15.5,72.1-15.5s56.2,5.5,76.7,16.4c20.5,10.9,35.6,25.8,45.4,44.5,9.8,18.8,14.7,39.6,14.7,62.6,0,39.1-13.8,75.6-41.4,109.5-27.6,33.9-63,67.5-106.3,100.8h155.1v79.9ZM1270.7,1156.3c-25.5,37.4-66.6,56-123.3,56s-97.8-18.7-123.3-56c-25.5-37.4-38.2-87.8-38.2-151.4s12.7-114.1,38.2-151.4c25.5-37.4,66.6-56,123.3-56s97.8,18.7,123.3,56c25.5,37.4,38.2,87.8,38.2,151.4s-12.7,114.1-38.2,151.4Z"/>
    </g>
    <path class="st1" d="M1350.6,312c-9.1-12-20.6-23-24.1-55,0,0,13.8-4,13.8-9v-12c0-5-4.8-9-10.8-9,0,0-119.9-15-329.5-15s-329.5,15-329.5,15c-5.9,0-10.8,4-10.8,9v12c0,5,13.8,9,13.8,9-3.5,32-15.1,43-24.1,55-7.5,10-11.7,21.5-11.7,33.3v1301.4c0,35.6,19.1,68.4,50,86,47.4,26.9,138.6,55.3,312.3,55.3s264.8-28.3,312.3-55.3c30.9-17.5,50-50.4,50-86V345.3c0-11.8-4.2-23.3-11.7-33.3ZM972.8,1126.9c-10.9,18.1-26.7,32.3-47.5,42.6-20.8,10.3-45.5,15.4-74.1,15.4-45.8,0-82.3-11.2-109.5-33.7-27.3-22.5-41.7-56.4-43.2-101.8h94.9c.4,16.8,5.1,30,14.3,39.7,9.1,9.7,22.5,14.6,40,14.6s26.4-4.3,34.6-12.9c8.2-8.6,12.3-19.9,12.3-34s-5.8-31.5-17.4-39.7c-11.6-8.2-30.2-12.3-55.8-12.3h-18.3v-79.5h18.3c19.4,0,35.2-3.3,47.2-10,12-6.7,18-18.6,18-35.7s-3.8-24.4-11.4-32c-7.6-7.6-18.1-11.4-31.5-11.4s-25.3,4.4-32.3,13.2c-7.1,8.8-11.2,19.6-12.3,32.6h-95.5c1.5-40.8,14.9-72.2,40-94.4,25.2-22.1,59.3-33.2,102.4-33.2s53.1,5,73.5,14.9c20.4,9.9,35.8,23.4,46.3,40.6,10.5,17.2,15.7,36.4,15.7,57.8s-6.3,45.7-18.9,61.5c-12.6,15.8-27.3,26.6-44,32.3v2.3c21.7,7.2,38.9,19.3,51.5,36,12.6,16.8,18.9,38.3,18.9,64.6s-5.4,44.5-16.3,62.6ZM1285.1,1126.9c-10.9,18.1-26.7,32.3-47.5,42.6-20.8,10.3-45.5,15.4-74.1,15.4-45.8,0-82.3-11.2-109.5-33.7-27.3-22.5-41.7-56.4-43.2-101.8h94.9c.4,16.8,5.1,30,14.3,39.7,9.1,9.7,22.5,14.6,40,14.6s26.4-4.3,34.6-12.9c8.2-8.6,12.3-19.9,12.3-34s-5.8-31.5-17.4-39.7c-11.6-8.2-30.2-12.3-55.8-12.3h-18.3v-79.5h18.3c19.4,0,35.2-3.3,47.2-10,12-6.7,18-18.6,18-35.7s-3.8-24.4-11.4-32c-7.6-7.6-18.1-11.4-31.5-11.4s-25.3,4.4-32.3,13.2c-7.1,8.8-11.2,19.6-12.3,32.6h-95.5c1.5-40.8,14.9-72.2,40-94.4,25.2-22.1,59.3-33.2,102.4-33.2s53.1,5,73.5,14.9c20.4,9.9,35.8,23.4,46.3,40.6,10.5,17.2,15.7,36.4,15.7,57.8s-6.3,45.7-18.9,61.5c-12.6,15.8-27.3,26.6-44,32.3v2.3c21.7,7.2,38.9,19.3,51.5,36,12.6,16.8,18.9,38.3,18.9,64.6s-5.4,44.5-16.3,62.6Z"/>
    <path class="st1" d="M1268.5,853l-39.8-49.5c-22.8-28.4-37.1-60.3-41.9-83.6l-63.8-504.5,2.3-11.3c10-6,14-15.7,10.2-24.6l-14.1-33c-2.7-6.4-4.1-13-4.1-19.7v-9l11.4-.4c5.7-.1,9.7-4.2,7.9-8.1l-8.3-18.4c-4.8-10.7-9.9-18.1-25.4-18.8,0,0-55-4.2-102.9-4.2s-102.9,4.2-102.9,4.2c-15.5.6-20.6,8.1-25.4,18.8l-8.3,18.4c-1.8,3.9,2.2,8,7.9,8.1l11.4.4v9c0,6.7-1.4,13.3-4.1,19.7l-14.1,33c-3.8,8.9.2,18.7,10.2,24.6l2.3,11.3-63.8,504.5c-4.8,23.3-19.1,55.3-41.9,83.6l-39.8,49.5c-30.3,37.7-88.6,81.3-88.6,125.8v851.5s0,101.7,357.1,101.7,357.1-101.7,357.1-101.7v-851.5c0-44.5-58.2-88.1-88.6-125.8ZM981.7,1158l-148.7,340.3h-102.4l152.7-329.4h-177.3v-82.9h275.7v72.1ZM1256.8,1459.7c-24.8,25.8-59.8,38.6-104.9,38.6s-56.2-5.2-78.4-15.5c-22.2-10.3-39.3-24.7-51.3-43.2-12-18.4-18.6-39.7-19.7-63.7h94.2c2.3,11.7,7.7,21.3,16.4,29,8.6,7.7,20.5,11.6,35.5,11.6s30.8-5.6,39.5-16.9c8.6-11.3,13-26.3,13-45.1s-4.5-32.5-13.5-42.3c-9-9.8-22.2-14.7-39.5-14.7s-23.3,3.1-31.6,9.3c-8.3,6.2-13.7,14.4-16.4,24.5h-93.1v-245.4h263.4v84.6h-176v77.8c7.5-8.3,18-15,31.6-20.3,13.5-5.3,28.2-7.9,44-7.9,28.2,0,51.6,6.4,70.2,19.2,18.6,12.8,32.2,29.3,40.9,49.6,8.6,20.3,13,42.3,13,66,0,44-12.4,78.9-37.2,104.6Z"/>
    <g class="st2">
      <path class="st0" d="M843.9,1309c-16.4,0-30,4.9-40.9,14.6-10.9,9.7-16.3,23.5-16.3,41.5s5,32.6,15.2,42.9c10.1,10.3,24.5,15.4,43.2,15.4s30-5,39.7-15.2c9.7-10.1,14.6-23.9,14.6-41.5s-4.8-32-14.3-42.3c-9.5-10.3-23.3-15.4-41.2-15.4Z"/>
      <path class="st0" d="M1160.1,1309c-16.4,0-30,4.9-40.9,14.6-10.9,9.7-16.3,23.5-16.3,41.5s5,32.6,15.2,42.9c10.1,10.3,24.5,15.4,43.2,15.4s30-5,39.7-15.2c9.7-10.1,14.6-23.9,14.6-41.5s-4.8-32-14.3-42.3c-9.5-10.3-23.3-15.4-41.2-15.4Z"/>
      <path class="st0" d="M1268.5,853l-39.8-49.5c-22.8-28.4-37.1-60.3-41.9-83.6l-63.8-504.5,2.3-11.3c10-6,14-15.7,10.2-24.6l-14.1-33c-2.7-6.4-4.1-13-4.1-19.7v-9l11.4-.4c5.7-.1,9.7-4.2,7.9-8.1l-8.3-18.4c-4.8-10.7-9.9-18.1-25.4-18.8,0,0-55-4.2-102.9-4.2s-102.9,4.2-102.9,4.2c-15.5.6-20.6,8.1-25.4,18.8l-8.3,18.4c-1.8,3.9,2.2,8,7.9,8.1l11.4.4v9c0,6.7-1.4,13.3-4.1,19.7l-14.1,33c-3.8,8.9.2,18.7,10.2,24.6l2.3,11.3-63.8,504.5c-4.8,23.3-19.1,55.3-41.9,83.6l-39.8,49.5c-30.3,37.7-88.6,81.3-88.6,125.8v851.5s0,101.7,357.1,101.7,357.1-101.7,357.1-101.7v-851.5c0-44.5-58.2-88.1-88.6-125.8ZM974.6,1439.4c-11.3,21-27.6,37.4-49.2,49.2-21.5,11.8-47,17.7-76.4,17.7-58.7,0-99.5-18.4-122.4-55.2-22.9-36.8-34.3-89.7-34.3-158.7s12.1-126.3,36.3-161.6c24.2-35.3,63-52.9,116.4-52.9s52.7,5.6,72.3,16.9c19.6,11.2,34.5,26,44.6,44.3,10.1,18.3,16.1,38.3,18,60.1h-90.9c-3.1-14.1-8.4-24.7-16-31.7-7.6-7.1-18.5-10.6-32.6-10.6-21.7,0-37.4,9.4-46.9,28.3-9.5,18.9-14.5,48.7-14.9,89.5,8.4-13.3,20.5-23.8,36.3-31.5,15.8-7.6,33.3-11.4,52.3-11.4,37.4,0,67.4,11.8,90.1,35.5,22.7,23.6,34,56.6,34,98.9s-5.6,52.2-16.9,73.2ZM1290.8,1439.4c-11.3,21-27.6,37.4-49.2,49.2-21.5,11.8-47,17.7-76.4,17.7-58.7,0-99.5-18.4-122.4-55.2-22.9-36.8-34.3-89.7-34.3-158.7s12.1-126.3,36.3-161.6c24.2-35.3,63-52.9,116.4-52.9s52.7,5.6,72.3,16.9c19.6,11.2,34.5,26,44.6,44.3,10.1,18.3,16.1,38.3,18,60.1h-90.9c-3.1-14.1-8.4-24.7-16-31.7-7.6-7.1-18.5-10.6-32.6-10.6-21.7,0-37.4,9.4-46.9,28.3-9.5,18.9-14.5,48.7-14.9,89.5,8.4-13.3,20.5-23.8,36.3-31.5,15.8-7.6,33.3-11.4,52.3-11.4,37.4,0,67.4,11.8,90.1,35.5,22.7,23.6,34,56.6,34,98.9s-5.6,52.2-16.9,73.2Z"/>
    </g>
    <g class="st2">
      <path class="st0" d="M1155.9,1176.3c-26.3,0-43.7,10-52,30-8.4,20-12.6,48.3-12.6,84.9s4.2,64.9,12.6,84.9c8.4,20,25.7,30,52,30s43.7-10,52-30c8.4-20,12.6-48.3,12.6-84.9s-4.2-64.9-12.6-84.9c-8.4-20-25.7-30-52-30Z"/>
      <path class="st0" d="M1268.5,853l-39.8-49.5c-22.8-28.4-37.1-60.3-41.9-83.6l-63.8-504.5,2.3-11.3c10-6,14-15.7,10.2-24.6l-14.1-33c-2.7-6.4-4.1-13-4.1-19.7v-9l11.4-.4c5.7-.1,9.7-4.2,7.9-8.1l-8.3-18.4c-4.8-10.7-9.9-18.1-25.4-18.8,0,0-55-4.2-102.9-4.2s-102.9,4.2-102.9,4.2c-15.5.6-20.6,8.1-25.4,18.8l-8.3,18.4c-1.8,3.9,2.2,8,7.9,8.1l11.4.4v9c0,6.7-1.4,13.3-4.1,19.7l-14.1,33c-3.8,8.9.2,18.7,10.2,24.6l2.3,11.3-63.8,504.5c-4.8,23.3-19.1,55.3-41.9,83.6l-39.8,49.5c-30.3,37.7-88.6,81.3-88.6,125.8v851.5s0,101.7,357.1,101.7,357.1-101.7,357.1-101.7v-851.5c0-44.5-58.2-88.1-88.6-125.8ZM939.1,1460.6c-24.9,25.9-60.1,38.8-105.4,38.8s-56.5-5.2-78.8-15.6c-22.3-10.4-39.5-24.8-51.6-43.4-12.1-18.5-18.7-39.9-19.8-64.1h94.7c2.3,11.7,7.7,21.5,16.4,29.2,8.7,7.8,20.6,11.6,35.7,11.6s31-5.7,39.7-17c8.7-11.3,13-26.4,13-45.4s-4.5-32.7-13.6-42.5c-9.1-9.8-22.3-14.7-39.7-14.7s-23.4,3.1-31.7,9.4c-8.3,6.2-13.8,14.5-16.4,24.7h-93.5v-246.6h264.7v85h-176.9v78.2c7.6-8.3,18.1-15.1,31.7-20.4,13.6-5.3,28.3-7.9,44.2-7.9,28.3,0,51.9,6.4,70.6,19.3,18.7,12.9,32.4,29.5,41.1,49.9,8.7,20.4,13,42.5,13,66.3,0,44.2-12.5,79.3-37.4,105.2ZM1278.6,1442c-25.4,37.2-66.3,55.8-122.7,55.8s-97.3-18.6-122.7-55.8c-25.4-37.2-38-87.4-38-150.7s12.7-113.5,38-150.7c25.4-37.2,66.2-55.8,122.7-55.8s97.3,18.6,122.7,55.8c25.4,37.2,38,87.4,38,150.7s-12.7,113.5-38,150.7Z"/>
    </g>
    <path class="st1" d="M1268.5,853l-39.8-49.5c-22.8-28.4-37.1-60.3-41.9-83.6l-63.8-504.5,2.3-11.3c10-6,14-15.7,10.2-24.6l-14.1-33c-2.7-6.4-4.1-13-4.1-19.7v-9l11.4-.4c5.7-.1,9.7-4.2,7.9-8.1l-8.3-18.4c-4.8-10.7-9.9-18.1-25.4-18.8,0,0-55-4.2-102.9-4.2s-102.9,4.2-102.9,4.2c-15.5.6-20.6,8.1-25.4,18.8l-8.3,18.4c-1.8,3.9,2.2,8,7.9,8.1l11.4.4v9c0,6.7-1.4,13.3-4.1,19.7l-14.1,33c-3.8,8.9.2,18.7,10.2,24.6l2.3,11.3-63.8,504.5c-4.8,23.3-19.1,55.3-41.9,83.6l-39.8,49.5c-30.3,37.7-88.6,81.3-88.6,125.8v851.5s0,101.7,357.1,101.7,357.1-101.7,357.1-101.7v-851.5c0-44.5-58.2-88.1-88.6-125.8ZM972.8,1449.4c-10.9,18.1-26.7,32.3-47.5,42.6-20.8,10.3-45.5,15.4-74.1,15.4-45.8,0-82.3-11.2-109.5-33.7-27.3-22.5-41.7-56.4-43.2-101.8h94.9c.4,16.8,5.1,30,14.3,39.7,9.1,9.7,22.5,14.6,40,14.6s26.4-4.3,34.6-12.9c8.2-8.6,12.3-19.9,12.3-34s-5.8-31.5-17.4-39.7c-11.6-8.2-30.2-12.3-55.8-12.3h-18.3v-79.5h18.3c19.4,0,35.2-3.3,47.2-10,12-6.7,18-18.6,18-35.7s-3.8-24.4-11.4-32c-7.6-7.6-18.1-11.4-31.5-11.4s-25.3,4.4-32.3,13.2c-7.1,8.8-11.2,19.6-12.3,32.6h-95.5c1.5-40.8,14.9-72.2,40-94.4,25.2-22.1,59.3-33.2,102.4-33.2s53.1,5,73.5,14.9c20.4,9.9,35.8,23.4,46.3,40.6,10.5,17.2,15.7,36.4,15.7,57.8s-6.3,45.7-18.9,61.5c-12.6,15.8-27.3,26.6-44,32.3v2.3c21.7,7.2,38.9,19.3,51.5,36,12.6,16.8,18.9,38.3,18.9,64.6s-5.4,44.5-16.3,62.6ZM1285.1,1449.4c-10.9,18.1-26.7,32.3-47.5,42.6-20.8,10.3-45.5,15.4-74.1,15.4-45.8,0-82.3-11.2-109.5-33.7-27.3-22.5-41.7-56.4-43.2-101.8h94.9c.4,16.8,5.1,30,14.3,39.7,9.1,9.7,22.5,14.6,40,14.6s26.4-4.3,34.6-12.9c8.2-8.6,12.3-19.9,12.3-34s-5.8-31.5-17.4-39.7c-11.6-8.2-30.2-12.3-55.8-12.3h-18.3v-79.5h18.3c19.4,0,35.2-3.3,47.2-10,12-6.7,18-18.6,18-35.7s-3.8-24.4-11.4-32c-7.6-7.6-18.1-11.4-31.5-11.4s-25.3,4.4-32.3,13.2c-7.1,8.8-11.2,19.6-12.3,32.6h-95.5c1.5-40.8,14.9-72.2,40-94.4,25.2-22.1,59.3-33.2,102.4-33.2s53.1,5,73.5,14.9c20.4,9.9,35.8,23.4,46.3,40.6,10.5,17.2,15.7,36.4,15.7,57.8s-6.3,45.7-18.9,61.5c-12.6,15.8-27.3,26.6-44,32.3v2.3c21.7,7.2,38.9,19.3,51.5,36,12.6,16.8,18.9,38.3,18.9,64.6s-5.4,44.5-16.3,62.6Z"/>
    <g class="st2">
      <path d="M929.1,995.4v-1.7c12.8-4.4,24-12.6,33.6-24.6,9.6-12.1,14.4-27.7,14.4-46.9s-4-31-12-44.1c-8-13.1-19.8-23.4-35.3-31-15.6-7.6-34.2-11.3-56.1-11.3-32.9,0-58.9,8.4-78.1,25.3-19.2,16.9-29.4,40.9-30.5,72h72.9c.9-9.9,4-18.2,9.4-24.9,5.4-6.7,13.6-10,24.6-10s18.2,2.9,24,8.7c5.8,5.8,8.7,14,8.7,24.4s-4.6,22.2-13.7,27.3c-9.2,5.1-21.2,7.6-36,7.6h-14v60.6h14c19.5,0,33.7,3.1,42.5,9.4,8.9,6.3,13.3,16.4,13.3,30.3s-3.1,19.4-9.4,26c-6.3,6.5-15.1,9.8-26.4,9.8s-23.6-3.7-30.5-11.1c-7-7.4-10.6-17.5-10.9-30.3h-72.4c1.2,34.6,12.1,60.5,32.9,77.7,20.8,17.2,48.6,25.7,83.5,25.7s40.6-3.9,56.5-11.8c15.8-7.9,27.9-18.7,36.2-32.5,8.3-13.8,12.4-29.7,12.4-47.8s-4.8-36.5-14.4-49.3c-9.6-12.8-22.7-22-39.3-27.5Z"/>
      <path d="M1209.8,887.9c-19.3-28.4-50.5-42.5-93.6-42.5s-74.2,14.2-93.6,42.5c-19.3,28.4-29,66.7-29,115s9.7,86.6,29,115c19.3,28.4,50.5,42.5,93.6,42.5s74.2-14.2,93.6-42.5c19.3-28.4,29-66.7,29-115s-9.7-86.6-29-115ZM1156,1067.6c-6.4,15.3-19.6,22.9-39.7,22.9s-33.3-7.6-39.7-22.9c-6.4-15.3-9.6-36.9-9.6-64.8s3.2-49.5,9.6-64.8c6.4-15.3,19.6-22.9,39.7-22.9s33.3,7.6,39.7,22.9c6.4,15.3,9.6,36.9,9.6,64.8s-3.2,49.5-9.6,64.8Z"/>
    </g>
    <g class="st2">
      <path d="M938,995.4v-1.7c12.8-4.4,24-12.6,33.6-24.6,9.6-12.1,14.4-27.7,14.4-46.9s-4-31-12-44.1c-8-13.1-19.8-23.4-35.3-31-15.6-7.6-34.2-11.3-56.1-11.3-32.9,0-58.9,8.4-78.1,25.3-19.2,16.9-29.4,40.9-30.5,72h72.9c.9-9.9,4-18.2,9.4-24.9,5.4-6.7,13.6-10,24.6-10s18.2,2.9,24,8.7c5.8,5.8,8.7,14,8.7,24.4s-4.6,22.2-13.7,27.3c-9.2,5.1-21.2,7.6-36,7.6h-14v60.6h14c19.5,0,33.7,3.1,42.5,9.4,8.9,6.3,13.3,16.4,13.3,30.3s-3.1,19.4-9.4,26c-6.3,6.5-15.1,9.8-26.4,9.8s-23.6-3.7-30.5-11.1c-7-7.4-10.6-17.5-10.9-30.3h-72.4c1.2,34.6,12.1,60.5,32.9,77.7,20.8,17.2,48.6,25.7,83.5,25.7s40.6-3.9,56.5-11.8c15.8-7.9,27.9-18.7,36.2-32.5,8.3-13.8,12.4-29.7,12.4-47.8s-4.8-36.5-14.4-49.3c-9.6-12.8-22.7-22-39.3-27.5Z"/>
      <path d="M1215.5,1022.9c-9.6-12.8-22.7-22-39.3-27.5v-1.7c12.8-4.4,24-12.6,33.6-24.6,9.6-12.1,14.4-27.7,14.4-46.9s-4-31-12-44.1c-8-13.1-19.8-23.4-35.3-31-15.6-7.6-34.2-11.3-56.1-11.3-32.9,0-58.9,8.4-78.1,25.3-19.2,16.9-29.4,40.9-30.5,72h72.9c.9-9.9,4-18.2,9.4-24.9,5.4-6.7,13.6-10,24.6-10s18.2,2.9,24,8.7c5.8,5.8,8.7,14,8.7,24.4s-4.6,22.2-13.7,27.3c-9.2,5.1-21.2,7.6-36,7.6h-14v60.6h14c19.5,0,33.7,3.1,42.5,9.4,8.9,6.3,13.3,16.4,13.3,30.3s-3.1,19.4-9.4,26c-6.3,6.5-15.1,9.8-26.4,9.8s-23.6-3.7-30.5-11.1c-7-7.4-10.6-17.5-10.9-30.3h-72.4c1.2,34.6,12.1,60.5,32.9,77.7,20.8,17.2,48.6,25.7,83.5,25.7s40.6-3.9,56.5-11.8c15.8-7.9,27.9-18.7,36.2-32.5,8.3-13.8,12.4-29.7,12.4-47.8s-4.8-36.5-14.4-49.3Z"/>
    </g>
    <g class="st2">
      <path d="M940.8,959.7c-14.3-9.8-32.2-14.7-53.8-14.7s-23.4,2-33.7,6.1c-10.4,4-18.5,9.2-24.2,15.6v-59.7h134.9v-64.9h-202v188.1h71.4c2-7.8,6.2-14.1,12.5-18.8,6.3-4.8,14.4-7.1,24.2-7.1s23.4,3.8,30.3,11.2c6.9,7.5,10.4,18.3,10.4,32.4s-3.3,25.9-9.9,34.6c-6.6,8.6-16.7,13-30.3,13s-20.6-3-27.2-8.9c-6.6-5.9-10.8-13.3-12.5-22.3h-72.2c.9,18.5,5.9,34.7,15.1,48.9,9.2,14.1,22.3,25.2,39.4,33.1,17,7.9,37,11.9,60.1,11.9,34.6,0,61.4-9.9,80.4-29.6,19-19.7,28.5-46.5,28.5-80.2s-3.3-35-9.9-50.6c-6.6-15.6-17.1-28.3-31.4-38.1Z"/>
      <path d="M1212.5,884.4c-19.3-28.4-50.5-42.5-93.6-42.5s-74.2,14.2-93.6,42.5c-19.3,28.4-29,66.7-29,115s9.7,86.6,29,115c19.3,28.4,50.5,42.5,93.6,42.5s74.2-14.2,93.6-42.5c19.3-28.4,29-66.7,29-115s-9.7-86.6-29-115ZM1158.6,1064.1c-6.4,15.3-19.6,22.9-39.7,22.9s-33.3-7.6-39.7-22.9c-6.4-15.3-9.6-36.9-9.6-64.8s3.2-49.5,9.6-64.8c6.4-15.3,19.6-22.9,39.7-22.9s33.3,7.6,39.7,22.9c6.4,15.3,9.6,36.9,9.6,64.8s-3.2,49.5-9.6,64.8Z"/>
    </g>
    <g class="st2">
      <path d="M898.8,954c-14.5,0-27.9,2.9-39.9,8.7-12.1,5.8-21.3,13.8-27.7,24,.3-31.1,4.1-53.9,11.3-68.3,7.3-14.4,19.2-21.6,35.8-21.6s19,2.7,24.9,8.1c5.8,5.4,9.9,13.5,12.2,24.2h69.4c-1.5-16.6-6-31.8-13.7-45.8-7.7-14-19.1-25.2-34-33.8-15-8.6-33.4-12.9-55.2-12.9-40.7,0-70.3,13.5-88.8,40.4-18.5,26.9-27.7,68-27.7,123.2s8.7,93,26.2,121.1c17.5,28.1,48.6,42.1,93.4,42.1s41.8-4.5,58.2-13.5c16.4-9,28.9-21.5,37.5-37.5,8.6-16,12.9-34.6,12.9-55.8,0-32.3-8.7-57.4-26-75.5-17.3-18-40.2-27-68.7-27ZM912.1,1088.6c-7.4,7.7-17.5,11.6-30.3,11.6s-25.2-3.9-32.9-11.8c-7.7-7.9-11.6-18.8-11.6-32.7s4.1-24.2,12.4-31.6c8.3-7.4,18.7-11.1,31.2-11.1s24.1,3.9,31.4,11.8c7.3,7.9,10.9,18.6,10.9,32.3s-3.7,23.9-11.1,31.6Z"/>
      <path d="M1208.7,981c-17.3-18-40.2-27-68.7-27s-27.9,2.9-39.9,8.7c-12.1,5.8-21.3,13.8-27.7,24,.3-31.1,4.1-53.9,11.3-68.3,7.3-14.4,19.2-21.6,35.8-21.6s19,2.7,24.9,8.1c5.8,5.4,9.9,13.5,12.2,24.2h69.4c-1.5-16.6-6-31.8-13.7-45.8-7.7-14-19.1-25.2-34-33.8-15-8.6-33.4-12.9-55.2-12.9-40.7,0-70.3,13.5-88.8,40.4-18.5,26.9-27.7,68-27.7,123.2s8.7,93,26.2,121.1c17.5,28.1,48.6,42.1,93.4,42.1s41.8-4.5,58.2-13.5c16.4-9,28.9-21.5,37.5-37.5,8.6-16,12.9-34.6,12.9-55.8,0-32.3-8.7-57.4-26-75.5ZM1153.3,1088.6c-7.4,7.7-17.5,11.6-30.3,11.6s-25.2-3.9-32.9-11.8c-7.7-7.9-11.6-18.8-11.6-32.7s4.1-24.2,12.4-31.6c8.3-7.4,18.7-11.1,31.2-11.1s24.1,3.9,31.4,11.8c7.3,7.9,10.9,18.6,10.9,32.3s-3.7,23.9-11.1,31.6Z"/>
    </g>
    <g class="st2">
      <polygon points="775.7 906 911 906 794.5 1157.3 872.6 1157.3 986 897.7 986 842.7 775.7 842.7 775.7 906"/>
      <path d="M1214.4,997.6c-6.6-15.5-17-28.1-31.2-37.9-14.2-9.7-32.1-14.6-53.6-14.6s-23.2,2-33.6,6c-10.3,4-18.4,9.2-24.1,15.5v-59.4h134.3v-64.5h-200.9v187.2h71c2-7.7,6.2-14,12.5-18.7,6.3-4.7,14.3-7.1,24.1-7.1s23.2,3.7,30.1,11.2c6.9,7.5,10.3,18.2,10.3,32.3s-3.3,25.8-9.9,34.4c-6.6,8.6-16.6,12.9-30.1,12.9s-20.5-2.9-27.1-8.8c-6.6-5.9-10.8-13.3-12.5-22.2h-71.9c.9,18.4,5.9,34.6,15.1,48.6,9.2,14.1,22.2,25,39.2,32.9,16.9,7.9,36.9,11.8,59.8,11.8,34.4,0,61.1-9.8,80-29.5,18.9-19.6,28.4-46.3,28.4-79.8s-3.3-34.9-9.9-50.3Z"/>
    </g>
    <g class="st2">
      <path d="M948.3,1018.3c20.9-25.7,31.4-53.4,31.4-83.1s-3.7-33.3-11.1-47.6c-7.4-14.2-18.9-25.5-34.5-33.8-15.6-8.3-35-12.4-58.2-12.4s-38.3,3.9-54.8,11.8c-16.4,7.9-29.7,20.1-39.7,36.6s-15.3,37.2-15.9,62h72c.9-31.7,12.4-47.6,34.5-47.6s18.8,3.2,24.2,9.6c5.4,6.4,8.1,15.6,8.1,27.5s-5.5,29.2-16.6,44.9c-11.1,15.7-24.7,30.9-41,45.6-16.3,14.7-38.4,33.7-66.3,56.9-.6.3-5.2,4.1-14,11.3v55.4h219v-60.6h-117.8c32.9-25.3,59.8-50.8,80.7-76.6Z"/>
      <path d="M1205.5,886.1c-19.3-28.4-50.5-42.5-93.6-42.5s-74.2,14.2-93.6,42.5c-19.3,28.4-29,66.7-29,115s9.7,86.6,29,115c19.3,28.4,50.5,42.5,93.6,42.5s74.2-14.2,93.6-42.5c19.3-28.4,29-66.7,29-115s-9.7-86.6-29-115ZM1151.6,1065.9c-6.4,15.3-19.6,22.9-39.7,22.9s-33.3-7.6-39.7-22.9c-6.4-15.3-9.6-36.9-9.6-64.8s3.2-49.5,9.6-64.8c6.4-15.3,19.6-22.9,39.7-22.9s33.3,7.6,39.7,22.9c6.4,15.3,9.6,36.9,9.6,64.8s-3.2,49.5-9.6,64.8Z"/>
    </g>
  </g>
  <g id="Livello_2">
    <g class="st2">
      <path class="st0" d="M1697.7,1271.8c6-82.8,9.7-173.5,9.7-271.8s-4.7-215.4-12.2-311c7.8-3.2,13.1-13.1,12-24.1l-16.1-164.2c-1.1-11.2-8.5-19.6-17.4-19.6h-.5c-18.9-141.9-41.9-253.4-58.9-325.7-13.7-57.9-58.7-101.5-114.3-111C1393.4,26.2,1203.9,0,1000,0s-393.4,26.2-500,44.4c-55.6,9.5-100.6,53.1-114.3,111-17.1,72.3-40.1,183.9-58.9,325.7h-.5c-8.8,0-16.3,8.4-17.4,19.6l-16.1,164.2c-1.1,11,4.2,20.9,12,24.1-7.5,95.6-12.2,199.8-12.2,311s3.7,188.9,9.7,271.8c-6.4,4.4-10.4,13.9-9.5,24.3l16.1,175c1.1,11.7,8.2,20.4,16.7,20.9,21,149,47.5,256.8,65.2,318.9,12,42.2,41.1,76.5,79.3,93.8,83,37.7,254.8,95.3,529.9,95.3s446.9-57.6,529.9-95.3c38.2-17.4,67.3-51.7,79.3-93.8,17.7-62.1,44.2-169.9,65.2-318.9,8.5-.4,15.7-9.2,16.7-20.9l16.1-175c1-10.4-3.1-19.9-9.5-24.3Z"/>
    </g>
    <g class="st2">
      <path class="st0" d="M1166.9,1290.5c-28.8,0-47.8,11-57,32.9-9.2,21.9-13.8,52.9-13.8,93s4.6,71.1,13.8,93c9.2,21.9,28.2,32.9,57,32.9s47.8-11,57-32.9c9.2-21.9,13.8-52.9,13.8-93s-4.6-71.1-13.8-93c-9.2-21.9-28.2-32.9-57-32.9Z"/>
      <path class="st0" d="M1697.7,1271.8c6-82.8,9.7-173.5,9.7-271.8s-4.7-215.4-12.2-311c7.8-3.2,13.1-13.1,12-24.1l-16.1-164.2c-1.1-11.2-8.5-19.6-17.4-19.6h-.5c-18.9-141.9-41.9-253.4-58.9-325.7-13.7-57.9-58.7-101.5-114.3-111C1393.4,26.2,1203.9,0,1000,0s-393.4,26.2-500,44.4c-55.6,9.5-100.6,53.1-114.3,111-17.1,72.3-40.1,183.9-58.9,325.7h-.5c-8.8,0-16.3,8.4-17.4,19.6l-16.1,164.2c-1.1,11,4.2,20.9,12,24.1-7.5,95.6-12.2,199.8-12.2,311s3.7,188.9,9.7,271.8c-6.4,4.4-10.4,13.9-9.5,24.3l16.1,175c1.1,11.7,8.2,20.4,16.7,20.9,21,149,47.5,256.8,65.2,318.9,12,42.2,41.1,76.5,79.3,93.8,83,37.7,254.8,95.3,529.9,95.3s446.9-57.6,529.9-95.3c38.2-17.4,67.3-51.7,79.3-93.8,17.7-62.1,44.2-169.9,65.2-318.9,8.5-.4,15.7-9.2,16.7-20.9l16.1-175c1-10.4-3.1-19.9-9.5-24.3ZM957.4,1584.6c-11.9,19.8-29.2,35.4-52,46.7-22.8,11.3-49.8,16.9-81.1,16.9-50.1,0-90.1-12.3-120-37-29.9-24.6-45.6-61.8-47.3-111.5h104c.4,18.4,5.6,32.9,15.7,43.5,10,10.6,24.6,16,43.8,16s28.9-4.7,37.9-14.1c9-9.4,13.5-21.8,13.5-37.3s-6.4-34.6-19.1-43.5c-12.7-9-33.1-13.5-61.1-13.5h-20v-87.1h20c21.3,0,38.5-3.6,51.7-11,13.2-7.3,19.7-20.4,19.7-39.2s-4.2-26.7-12.5-35.1c-8.4-8.3-19.8-12.5-34.5-12.5s-27.7,4.8-35.4,14.4c-7.7,9.6-12.2,21.5-13.5,35.7h-104.6c1.7-44.7,16.3-79.1,43.8-103.4,27.6-24.2,64.9-36.3,112.1-36.3s58.1,5.4,80.5,16.3c22.3,10.9,39.2,25.7,50.7,44.5,11.5,18.8,17.2,39.9,17.2,63.3s-6.9,50-20.7,67.3c-13.8,17.3-29.9,29.1-48.2,35.4v2.5c23.8,7.9,42.6,21.1,56.4,39.5,13.8,18.4,20.7,42,20.7,70.8s-6,48.8-17.9,68.6ZM1301.3,1581.5c-27.8,40.7-72.6,61.1-134.4,61.1s-106.6-20.4-134.4-61.1c-27.8-40.7-41.7-95.7-41.7-165.1s13.9-124.3,41.7-165.1c27.8-40.7,72.6-61.1,134.4-61.1s106.6,20.4,134.4,61.1c27.8,40.7,41.7,95.7,41.7,165.1s-13.9,124.3-41.7,165.1Z"/>
    </g>
    <g class="st2">
      <path class="st0" d="M1160.7,1288c-28.8,0-47.8,11-57,32.9-9.2,21.9-13.8,52.9-13.8,93s4.6,71.1,13.8,93c9.2,21.9,28.2,32.9,57,32.9s47.8-11,57-32.9c9.2-21.9,13.8-52.9,13.8-93s-4.6-71.1-13.8-93c-9.2-21.9-28.2-32.9-57-32.9Z"/>
      <path class="st0" d="M1697.7,1271.8c6-82.8,9.7-173.5,9.7-271.8s-4.7-215.4-12.2-311c7.8-3.2,13.1-13.1,12-24.1l-16.1-164.2c-1.1-11.2-8.5-19.6-17.4-19.6h-.5c-18.9-141.9-41.9-253.4-58.9-325.7-13.7-57.9-58.7-101.5-114.3-111C1393.4,26.2,1203.9,0,1000,0s-393.4,26.2-500,44.4c-55.6,9.5-100.6,53.1-114.3,111-17.1,72.3-40.1,183.9-58.9,325.7h-.5c-8.8,0-16.3,8.4-17.4,19.6l-16.1,164.2c-1.1,11,4.2,20.9,12,24.1-7.5,95.6-12.2,199.8-12.2,311s3.7,188.9,9.7,271.8c-6.4,4.4-10.4,13.9-9.5,24.3l16.1,175c1.1,11.7,8.2,20.4,16.7,20.9,21,149,47.5,256.8,65.2,318.9,12,42.2,41.1,76.5,79.3,93.8,83,37.7,254.8,95.3,529.9,95.3s446.9-57.6,529.9-95.3c38.2-17.4,67.3-51.7,79.3-93.8,17.7-62.1,44.2-169.9,65.2-318.9,8.5-.4,15.7-9.2,16.7-20.9l16.1-175c1-10.4-3.1-19.9-9.5-24.3ZM979,1635.7h-314.5v-79.6c12.5-10.4,19.2-15.9,20-16.3,40.1-33.4,71.8-60.7,95.2-81.7,23.4-21.1,43-42.9,58.9-65.5,15.9-22.6,23.8-44.1,23.8-64.5s-3.9-30.3-11.6-39.5c-7.7-9.2-19.3-13.8-34.8-13.8-31.7,0-48.2,22.8-49.5,68.3h-103.4c.8-35.5,8.5-65.1,22.9-89,14.4-23.8,33.4-41.3,57-52.6,23.6-11.3,49.8-16.9,78.6-16.9s61.3,6,83.6,17.9c22.3,11.9,38.8,28.1,49.5,48.5,10.6,20.5,16,43.2,16,68.3,0,42.6-15,82.4-45.1,119.3-30.1,37-68.7,73.6-115.9,109.9h169.1v87.1ZM1295.1,1579c-27.8,40.7-72.6,61.1-134.4,61.1s-106.6-20.4-134.4-61.1c-27.8-40.7-41.7-95.7-41.7-165.1s13.9-124.3,41.7-165.1c27.8-40.7,72.6-61.1,134.4-61.1s106.6,20.4,134.4,61.1c27.8,40.7,41.7,95.7,41.7,165.1s-13.9,124.3-41.7,165.1Z"/>
    </g>
    <path class="st1" d="M1444.9,126.9c-11.5-15.3-26.2-29.2-30.6-69.8,0,0,17.6-5.1,17.6-11.4v-15.2c0-6.3-6.1-11.4-13.7-11.4,0,0-152.2-19.1-418.2-19.1s-418.2,19.1-418.2,19.1c-7.5,0-13.7,5.1-13.7,11.4v15.2c0,6.3,17.6,11.4,17.6,11.4-4.5,40.6-19.2,54.5-30.6,69.8-9.5,12.7-14.8,27.3-14.8,42.3v1651.6c0,45.1,24.2,86.8,63.5,109.1,60.2,34.1,175.9,70.1,396.3,70.1s336.1-36,396.3-70.1c39.3-22.3,63.5-64,63.5-109.1V169.2c0-15-5.3-29.6-14.8-42.3ZM970.2,1584.6c-11.9,19.8-29.2,35.4-52,46.7-22.8,11.3-49.8,16.9-81.1,16.9-50.1,0-90.1-12.3-120-37-29.9-24.6-45.6-61.8-47.3-111.5h104c.4,18.4,5.6,32.9,15.7,43.5,10,10.6,24.6,16,43.8,16s28.9-4.7,37.9-14.1c9-9.4,13.5-21.8,13.5-37.3s-6.4-34.6-19.1-43.5c-12.7-9-33.1-13.5-61.1-13.5h-20v-87.1h20c21.3,0,38.5-3.6,51.7-11,13.2-7.3,19.7-20.4,19.7-39.2s-4.2-26.7-12.5-35.1c-8.4-8.3-19.8-12.5-34.5-12.5s-27.7,4.8-35.4,14.4c-7.7,9.6-12.2,21.5-13.5,35.7h-104.6c1.7-44.7,16.3-79.1,43.8-103.4,27.6-24.2,64.9-36.3,112.1-36.3s58.1,5.4,80.5,16.3c22.3,10.9,39.2,25.7,50.7,44.5,11.5,18.8,17.2,39.9,17.2,63.3s-6.9,50-20.7,67.3c-13.8,17.3-29.9,29.1-48.2,35.4v2.5c23.8,7.9,42.6,21.1,56.4,39.5,13.8,18.4,20.7,42,20.7,70.8s-6,48.8-17.9,68.6ZM1312.3,1584.6c-11.9,19.8-29.2,35.4-52,46.7-22.8,11.3-49.8,16.9-81.1,16.9-50.1,0-90.1-12.3-120-37-29.9-24.6-45.6-61.8-47.3-111.5h104c.4,18.4,5.6,32.9,15.7,43.5,10,10.6,24.6,16,43.8,16s28.9-4.7,37.9-14.1c9-9.4,13.5-21.8,13.5-37.3s-6.4-34.6-19.1-43.5c-12.7-9-33.1-13.5-61.1-13.5h-20v-87.1h20c21.3,0,38.5-3.6,51.7-11,13.2-7.3,19.7-20.4,19.7-39.2s-4.2-26.7-12.5-35.1c-8.4-8.3-19.8-12.5-34.5-12.5s-27.7,4.8-35.4,14.4c-7.7,9.6-12.2,21.5-13.5,35.7h-104.6c1.7-44.7,16.3-79.1,43.8-103.4,27.6-24.2,64.9-36.3,112.1-36.3s58.1,5.4,80.5,16.3c22.3,10.9,39.2,25.7,50.7,44.5,11.5,18.8,17.2,39.9,17.2,63.3s-6.9,50-20.7,67.3c-13.8,17.3-29.9,29.1-48.2,35.4v2.5c23.8,7.9,42.6,21.1,56.4,39.5,13.8,18.4,20.7,42,20.7,70.8s-6,48.8-17.9,68.6Z"/>
    <path class="st1" d="M1444.9,126.9c-11.5-15.3-26.2-29.2-30.6-69.8,0,0,17.6-5.1,17.6-11.4v-15.2c0-6.3-6.1-11.4-13.7-11.4,0,0-152.2-19.1-418.2-19.1s-418.2,19.1-418.2,19.1c-7.5,0-13.7,5.1-13.7,11.4v15.2c0,6.3,17.6,11.4,17.6,11.4-4.5,40.6-19.2,54.5-30.6,69.8-9.5,12.7-14.8,27.3-14.8,42.3v1651.6c0,45.1,24.2,86.8,63.5,109.1,60.2,34.1,175.9,70.1,396.3,70.1s336.1-36,396.3-70.1c39.3-22.3,63.5-64,63.5-109.1V169.2c0-15-5.3-29.6-14.8-42.3Z"/>
    <g class="st2">
      <path class="st0" d="M1288.1,842.3l-42.7-53.1c-24.5-30.4-39.8-64.7-44.9-89.7l-68.5-541.3,2.5-12.2c10.7-6.4,15-16.8,10.9-26.4l-15.1-35.4c-2.9-6.8-4.4-13.9-4.4-21.1v-9.6l12.2-.4c6.1-.1,10.4-4.5,8.5-8.7l-8.9-19.8c-5.2-11.5-10.6-19.4-27.3-20.1,0,0-59-4.5-110.4-4.5s-110.4,4.5-110.4,4.5c-16.6.7-22.1,8.7-27.3,20.1l-8.9,19.8c-1.9,4.2,2.3,8.6,8.5,8.7l12.2.4v9.6c0,7.1-1.5,14.3-4.4,21.1l-15.1,35.4c-4.1,9.6.2,20,10.9,26.4l2.5,12.2-68.5,541.3c-5.1,25-20.5,59.3-44.9,89.7l-42.7,53.1c-32.5,40.5-95,87.2-95,134.9v913.6s0,109.1,383.1,109.1,383.1-109.1,383.1-109.1v-913.6c0-47.7-62.5-94.5-95-134.9Z"/>
    </g>
    <path class="st0" d="M1288.1,842.3l-42.7-53.1c-24.5-30.4-39.8-64.7-44.9-89.7l-68.5-541.3,2.5-12.2c10.7-6.4,15-16.8,10.9-26.4l-15.1-35.4c-2.9-6.8-4.4-13.9-4.4-21.1v-9.6l12.2-.4c6.1-.1,10.4-4.5,8.5-8.7l-8.9-19.8c-5.2-11.5-10.6-19.4-27.3-20.1,0,0-59-4.5-110.4-4.5s-110.4,4.5-110.4,4.5c-16.6.7-22.1,8.7-27.3,20.1l-8.9,19.8c-1.9,4.2,2.3,8.6,8.5,8.7l12.2.4v9.6c0,7.1-1.5,14.3-4.4,21.1l-15.1,35.4c-4.1,9.6.2,20,10.9,26.4l2.5,12.2-68.5,541.3c-5.1,25-20.5,59.3-44.9,89.7l-42.7,53.1c-32.5,40.5-95,87.2-95,134.9v913.6s0,109.1,383.1,109.1,383.1-109.1,383.1-109.1v-913.6c0-47.7-62.5-94.5-95-134.9ZM970.2,1584.6c-11.9,19.8-29.2,35.4-52,46.7-22.8,11.3-49.8,16.9-81.1,16.9-50.1,0-90.1-12.3-120-37-29.9-24.6-45.6-61.8-47.3-111.5h104c.4,18.4,5.6,32.9,15.7,43.5,10,10.6,24.6,16,43.8,16s28.9-4.7,37.9-14.1c9-9.4,13.5-21.8,13.5-37.3s-6.4-34.6-19.1-43.5c-12.7-9-33.1-13.5-61.1-13.5h-20v-87.1h20c21.3,0,38.5-3.6,51.7-11,13.2-7.3,19.7-20.4,19.7-39.2s-4.2-26.7-12.5-35.1c-8.4-8.3-19.8-12.5-34.5-12.5s-27.7,4.8-35.4,14.4c-7.7,9.6-12.2,21.5-13.5,35.7h-104.6c1.7-44.7,16.3-79.1,43.8-103.4,27.6-24.2,64.9-36.3,112.1-36.3s58.1,5.4,80.5,16.3c22.3,10.9,39.2,25.7,50.7,44.5,11.5,18.8,17.2,39.9,17.2,63.3s-6.9,50-20.7,67.3c-13.8,17.3-29.9,29.1-48.2,35.4v2.5c23.8,7.9,42.6,21.1,56.4,39.5,13.8,18.4,20.7,42,20.7,70.8s-6,48.8-17.9,68.6ZM1312.3,1584.6c-11.9,19.8-29.2,35.4-52,46.7-22.8,11.3-49.8,16.9-81.1,16.9-50.1,0-90.1-12.3-120-37-29.9-24.6-45.6-61.8-47.3-111.5h104c.4,18.4,5.6,32.9,15.7,43.5,10,10.6,24.6,16,43.8,16s28.9-4.7,37.9-14.1c9-9.4,13.5-21.8,13.5-37.3s-6.4-34.6-19.1-43.5c-12.7-9-33.1-13.5-61.1-13.5h-20v-87.1h20c21.3,0,38.5-3.6,51.7-11,13.2-7.3,19.7-20.4,19.7-39.2s-4.2-26.7-12.5-35.1c-8.4-8.3-19.8-12.5-34.5-12.5s-27.7,4.8-35.4,14.4c-7.7,9.6-12.2,21.5-13.5,35.7h-104.6c1.7-44.7,16.3-79.1,43.8-103.4,27.6-24.2,64.9-36.3,112.1-36.3s58.1,5.4,80.5,16.3c22.3,10.9,39.2,25.7,50.7,44.5,11.5,18.8,17.2,39.9,17.2,63.3s-6.9,50-20.7,67.3c-13.8,17.3-29.9,29.1-48.2,35.4v2.5c23.8,7.9,42.6,21.1,56.4,39.5,13.8,18.4,20.7,42,20.7,70.8s-6,48.8-17.9,68.6Z"/>
    <g class="st2">
      <path class="st0" d="M1166.9,1290.5c-28.8,0-47.8,11-57,32.9-9.2,21.9-13.8,52.9-13.8,93s4.6,71.1,13.8,93c9.2,21.9,28.2,32.9,57,32.9s47.8-11,57-32.9c9.2-21.9,13.8-52.9,13.8-93s-4.6-71.1-13.8-93c-9.2-21.9-28.2-32.9-57-32.9Z"/>
      <path class="st0" d="M1288.1,842.3l-42.7-53.1c-24.5-30.4-39.8-64.7-44.9-89.7l-68.5-541.3,2.5-12.2c10.7-6.4,15-16.8,10.9-26.4l-15.1-35.4c-2.9-6.8-4.4-13.9-4.4-21.1v-9.6l12.2-.4c6.1-.1,10.4-4.5,8.5-8.7l-8.9-19.8c-5.2-11.5-10.6-19.4-27.3-20.1,0,0-59-4.5-110.4-4.5s-110.4,4.5-110.4,4.5c-16.6.7-22.1,8.7-27.3,20.1l-8.9,19.8c-1.9,4.2,2.3,8.6,8.5,8.7l12.2.4v9.6c0,7.1-1.5,14.3-4.4,21.1l-15.1,35.4c-4.1,9.6.2,20,10.9,26.4l2.5,12.2-68.5,541.3c-5.1,25-20.5,59.3-44.9,89.7l-42.7,53.1c-32.5,40.5-95,87.2-95,134.9v913.6s0,109.1,383.1,109.1,383.1-109.1,383.1-109.1v-913.6c0-47.7-62.5-94.5-95-134.9ZM957.4,1584.6c-11.9,19.8-29.2,35.4-52,46.7-22.8,11.3-49.8,16.9-81.1,16.9-50.1,0-90.1-12.3-120-37-29.9-24.6-45.6-61.8-47.3-111.5h104c.4,18.4,5.6,32.9,15.7,43.5,10,10.6,24.6,16,43.8,16s28.9-4.7,37.9-14.1c9-9.4,13.5-21.8,13.5-37.3s-6.4-34.6-19.1-43.5c-12.7-9-33.1-13.5-61.1-13.5h-20v-87.1h20c21.3,0,38.5-3.6,51.7-11,13.2-7.3,19.7-20.4,19.7-39.2s-4.2-26.7-12.5-35.1c-8.4-8.3-19.8-12.5-34.5-12.5s-27.7,4.8-35.4,14.4c-7.7,9.6-12.2,21.5-13.5,35.7h-104.6c1.7-44.7,16.3-79.1,43.8-103.4,27.6-24.2,64.9-36.3,112.1-36.3s58.1,5.4,80.5,16.3c22.3,10.9,39.2,25.7,50.7,44.5,11.5,18.8,17.2,39.9,17.2,63.3s-6.9,50-20.7,67.3c-13.8,17.3-29.9,29.1-48.2,35.4v2.5c23.8,7.9,42.6,21.1,56.4,39.5,13.8,18.4,20.7,42,20.7,70.8s-6,48.8-17.9,68.6ZM1301.3,1581.5c-27.8,40.7-72.6,61.1-134.4,61.1s-106.6-20.4-134.4-61.1c-27.8-40.7-41.7-95.7-41.7-165.1s13.9-124.3,41.7-165.1c27.8-40.7,72.6-61.1,134.4-61.1s106.6,20.4,134.4,61.1c27.8,40.7,41.7,95.7,41.7,165.1s-13.9,124.3-41.7,165.1Z"/>
    </g>
    <g class="st2">
      <path class="st0" d="M1288.1,842.3l-42.7-53.1c-24.5-30.4-39.8-64.7-44.9-89.7l-68.5-541.3,2.5-12.2c10.7-6.4,15-16.8,10.9-26.4l-15.1-35.4c-2.9-6.8-4.4-13.9-4.4-21.1v-9.6l12.2-.4c6.1-.1,10.4-4.5,8.5-8.7l-8.9-19.8c-5.2-11.5-10.6-19.4-27.3-20.1,0,0-59-4.5-110.4-4.5s-110.4,4.5-110.4,4.5c-16.6.7-22.1,8.7-27.3,20.1l-8.9,19.8c-1.9,4.2,2.3,8.6,8.5,8.7l12.2.4v9.6c0,7.1-1.5,14.3-4.4,21.1l-15.1,35.4c-4.1,9.6.2,20,10.9,26.4l2.5,12.2-68.5,541.3c-5.1,25-20.5,59.3-44.9,89.7l-42.7,53.1c-32.5,40.5-95,87.2-95,134.9v913.6s0,109.1,383.1,109.1,383.1-109.1,383.1-109.1v-913.6c0-47.7-62.5-94.5-95-134.9ZM933.2,1596.9c-27.3,28.4-65.8,42.5-115.5,42.5s-61.9-5.7-86.3-17.1c-24.4-11.4-43.3-27.2-56.5-47.5-13.3-20.3-20.5-43.7-21.7-70.2h103.7c2.5,12.8,8.5,23.5,18,32,9.5,8.5,22.6,12.7,39.1,12.7s33.9-6.2,43.5-18.6c9.5-12.4,14.3-29,14.3-49.7s-5-35.8-14.9-46.6c-9.9-10.8-24.4-16.1-43.5-16.1s-25.7,3.4-34.8,10.2c-9.1,6.8-15.1,15.8-18,27h-102.5v-270.1h290v93.1h-193.7v85.7c8.3-9.1,19.9-16.6,34.8-22.4,14.9-5.8,31-8.7,48.4-8.7,31,0,56.8,7,77.3,21.1,20.5,14.1,35.5,32.3,45,54.6,9.5,22.4,14.3,46.6,14.3,72.6,0,48.4-13.7,86.8-41,115.2ZM1305.1,1576.5c-27.8,40.7-72.6,61.1-134.4,61.1s-106.6-20.4-134.4-61.1c-27.8-40.7-41.7-95.7-41.7-165.1s13.9-124.3,41.7-165.1c27.8-40.7,72.6-61.1,134.4-61.1s106.6,20.4,134.4,61.1c27.8,40.7,41.7,95.7,41.7,165.1s-13.9,124.3-41.7,165.1Z"/>
      <path class="st0" d="M1170.8,1285.5c-28.8,0-47.8,11-57,32.9-9.2,21.9-13.8,52.9-13.8,93s4.6,71.1,13.8,93c9.2,21.9,28.2,32.9,57,32.9s47.8-11,57-32.9c9.2-21.9,13.8-52.9,13.8-93s-4.6-71.1-13.8-93c-9.2-21.9-28.2-32.9-57-32.9Z"/>
    </g>
    <g class="st2">
      <path class="st0" d="M1175.3,1430.9c-18,0-32.9,5.3-44.8,16-11.9,10.6-17.9,25.8-17.9,45.4s5.5,35.7,16.6,47c11.1,11.3,26.8,16.9,47.3,16.9s32.9-5.5,43.5-16.6c10.6-11.1,16-26.2,16-45.4s-5.2-35.1-15.7-46.4c-10.4-11.3-25.5-16.9-45.1-16.9Z"/>
      <path class="st0" d="M829,1430.9c-18,0-32.9,5.3-44.8,16-11.9,10.6-17.9,25.8-17.9,45.4s5.5,35.7,16.6,47c11.1,11.3,26.8,16.9,47.3,16.9s32.9-5.5,43.5-16.6c10.6-11.1,16-26.2,16-45.4s-5.2-35.1-15.7-46.4c-10.4-11.3-25.5-16.9-45.1-16.9Z"/>
      <path class="st0" d="M1288.1,842.3l-42.7-53.1c-24.5-30.4-39.8-64.7-44.9-89.7l-68.5-541.3,2.5-12.2c10.7-6.4,15-16.8,10.9-26.4l-15.1-35.4c-2.9-6.8-4.4-13.9-4.4-21.1v-9.6l12.2-.4c6.1-.1,10.4-4.5,8.5-8.7l-8.9-19.8c-5.2-11.5-10.6-19.4-27.3-20.1,0,0-59-4.5-110.4-4.5s-110.4,4.5-110.4,4.5c-16.6.7-22.1,8.7-27.3,20.1l-8.9,19.8c-1.9,4.2,2.3,8.6,8.5,8.7l12.2.4v9.6c0,7.1-1.5,14.3-4.4,21.1l-15.1,35.4c-4.1,9.6.2,20,10.9,26.4l2.5,12.2-68.5,541.3c-5.1,25-20.5,59.3-44.9,89.7l-42.7,53.1c-32.5,40.5-95,87.2-95,134.9v913.6s0,109.1,383.1,109.1,383.1-109.1,383.1-109.1v-913.6c0-47.7-62.5-94.5-95-134.9ZM972.2,1573.7c-12.3,23-30.3,40.9-53.9,53.9-23.6,12.9-51.5,19.4-83.6,19.4-64.3,0-109-20.1-134.1-60.4-25.1-40.3-37.6-98.2-37.6-173.8s13.3-138.3,39.8-177c26.5-38.6,69-57.9,127.5-57.9s57.7,6.2,79.2,18.5c21.5,12.3,37.8,28.5,48.9,48.5,11.1,20,17.6,42,19.7,65.8h-99.6c-3.3-15.4-9.2-27-17.5-34.8-8.4-7.7-20.3-11.6-35.7-11.6-23.8,0-40.9,10.3-51.4,31-10.4,20.7-15.9,53.4-16.3,98,9.2-14.6,22.4-26.1,39.8-34.5,17.3-8.3,36.4-12.5,57.3-12.5,40.9,0,73.8,12.9,98.7,38.8,24.8,25.9,37.3,62,37.3,108.4s-6.2,57.2-18.5,80.2ZM1318.5,1573.7c-12.3,23-30.3,40.9-53.9,53.9-23.6,12.9-51.5,19.4-83.6,19.4-64.3,0-109-20.1-134.1-60.4-25.1-40.3-37.6-98.2-37.6-173.8s13.3-138.3,39.8-177c26.5-38.6,69-57.9,127.5-57.9s57.7,6.2,79.2,18.5c21.5,12.3,37.8,28.5,48.9,48.5,11.1,20,17.6,42,19.7,65.8h-99.6c-3.3-15.4-9.2-27-17.5-34.8-8.4-7.7-20.3-11.6-35.7-11.6-23.8,0-40.9,10.3-51.4,31-10.4,20.7-15.9,53.4-16.3,98,9.2-14.6,22.4-26.1,39.8-34.5,17.3-8.3,36.4-12.5,57.3-12.5,40.9,0,73.8,12.9,98.7,38.8,24.8,25.9,37.3,62,37.3,108.4s-6.2,57.2-18.5,80.2Z"/>
    </g>
    <path class="st1" d="M1288.1,842.3l-42.7-53.1c-24.5-30.4-39.8-64.7-44.9-89.7l-68.5-541.3,2.5-12.2c10.7-6.4,15-16.8,10.9-26.4l-15.1-35.4c-2.9-6.8-4.4-13.9-4.4-21.1v-9.6l12.2-.4c6.1-.1,10.4-4.5,8.5-8.7l-8.9-19.8c-5.2-11.5-10.6-19.4-27.3-20.1,0,0-59-4.5-110.4-4.5s-110.4,4.5-110.4,4.5c-16.6.7-22.1,8.7-27.3,20.1l-8.9,19.8c-1.9,4.2,2.3,8.6,8.5,8.7l12.2.4v9.6c0,7.1-1.5,14.3-4.4,21.1l-15.1,35.4c-4.1,9.6.2,20,10.9,26.4l2.5,12.2-68.5,541.3c-5.1,25-20.5,59.3-44.9,89.7l-42.7,53.1c-32.5,40.5-95,87.2-95,134.9v913.6s0,109.1,383.1,109.1,383.1-109.1,383.1-109.1v-913.6c0-47.7-62.5-94.5-95-134.9ZM979.9,1265.5l-162.9,372.7h-112.1l167.3-360.8h-194.2v-90.8h301.9v78.9ZM1281.2,1595.9c-27.2,28.2-65.5,42.3-114.9,42.3s-61.6-5.7-85.9-17c-24.3-11.3-43-27.1-56.2-47.3-13.2-20.2-20.4-43.5-21.6-69.8h103.2c2.5,12.8,8.4,23.4,17.9,31.8,9.5,8.4,22.4,12.7,38.9,12.7s33.8-6.2,43.2-18.5c9.5-12.4,14.2-28.8,14.2-49.4s-4.9-35.6-14.8-46.3c-9.9-10.7-24.3-16.1-43.2-16.1s-25.5,3.4-34.6,10.2c-9.1,6.8-15,15.8-17.9,26.9h-101.9v-268.8h288.5v92.7h-192.8v85.3c8.2-9.1,19.8-16.5,34.6-22.2,14.8-5.8,30.9-8.6,48.2-8.6,30.9,0,56.5,7,76.9,21,20.4,14,35.3,32.1,44.8,54.4,9.5,22.2,14.2,46.3,14.2,72.3,0,48.2-13.6,86.4-40.8,114.6Z"/>
    <g class="st2">
      <path d="M898.2,1405.8v-2.5c18.4-6.3,34.5-18.1,48.2-35.4,13.8-17.3,20.7-39.8,20.7-67.3s-5.7-44.5-17.2-63.3c-11.5-18.8-28.4-33.6-50.7-44.5-22.3-10.9-49.2-16.3-80.5-16.3-47.2,0-84.6,12.1-112.1,36.3-27.6,24.2-42.2,58.7-43.8,103.4h104.6c1.3-14.2,5.7-26.1,13.5-35.7,7.7-9.6,19.5-14.4,35.4-14.4s26.1,4.2,34.5,12.5c8.4,8.4,12.5,20,12.5,35.1s-6.6,31.8-19.7,39.2c-13.2,7.3-30.4,11-51.7,11h-20v87.1h20c28,0,48.3,4.5,61.1,13.5,12.7,9,19.1,23.5,19.1,43.5s-4.5,27.9-13.5,37.3c-9,9.4-21.6,14.1-37.9,14.1s-33.8-5.3-43.8-16c-10-10.6-15.3-25.2-15.7-43.5h-104c1.7,49.7,17.4,86.9,47.3,111.5,29.9,24.6,69.8,37,120,37s58.4-5.6,81.1-16.9c22.8-11.3,40.1-26.8,52-46.7,11.9-19.8,17.9-42.7,17.9-68.6s-6.9-52.4-20.7-70.8c-13.8-18.4-32.6-31.5-56.4-39.5Z"/>
      <path d="M1301.3,1251.4c-27.8-40.7-72.6-61.1-134.4-61.1s-106.6,20.4-134.4,61.1c-27.8,40.7-41.7,95.7-41.7,165.1s13.9,124.3,41.7,165.1c27.8,40.7,72.6,61.1,134.4,61.1s106.6-20.4,134.4-61.1c27.8-40.7,41.7-95.7,41.7-165.1s-13.9-124.3-41.7-165.1ZM1223.9,1509.5c-9.2,21.9-28.2,32.9-57,32.9s-47.8-11-57-32.9c-9.2-21.9-13.8-52.9-13.8-93s4.6-71.1,13.8-93c9.2-21.9,28.2-32.9,57-32.9s47.8,11,57,32.9c9.2,21.9,13.8,52.9,13.8,93s-4.6,71.1-13.8,93Z"/>
    </g>
    <g class="st2">
      <path d="M911,1405.8v-2.5c18.4-6.3,34.5-18.1,48.2-35.4,13.8-17.3,20.7-39.8,20.7-67.3s-5.7-44.5-17.2-63.3c-11.5-18.8-28.4-33.6-50.7-44.5-22.3-10.9-49.2-16.3-80.5-16.3-47.2,0-84.6,12.1-112.1,36.3-27.6,24.2-42.2,58.7-43.8,103.4h104.6c1.3-14.2,5.7-26.1,13.5-35.7,7.7-9.6,19.5-14.4,35.4-14.4s26.1,4.2,34.5,12.5c8.4,8.4,12.5,20,12.5,35.1s-6.6,31.8-19.7,39.2c-13.2,7.3-30.4,11-51.7,11h-20v87.1h20c28,0,48.3,4.5,61.1,13.5,12.7,9,19.1,23.5,19.1,43.5s-4.5,27.9-13.5,37.3c-9,9.4-21.6,14.1-37.9,14.1s-33.8-5.3-43.8-16c-10-10.6-15.3-25.2-15.7-43.5h-104c1.7,49.7,17.4,86.9,47.3,111.5,29.9,24.6,69.8,37,120,37s58.4-5.6,81.1-16.9c22.8-11.3,40.1-26.8,52-46.7,11.9-19.8,17.9-42.7,17.9-68.6s-6.9-52.4-20.7-70.8c-13.8-18.4-32.6-31.5-56.4-39.5Z"/>
      <path d="M1309.5,1445.3c-13.8-18.4-32.6-31.5-56.4-39.5v-2.5c18.4-6.3,34.5-18.1,48.2-35.4,13.8-17.3,20.7-39.8,20.7-67.3s-5.7-44.5-17.2-63.3c-11.5-18.8-28.4-33.6-50.7-44.5-22.3-10.9-49.2-16.3-80.5-16.3-47.2,0-84.6,12.1-112.1,36.3-27.6,24.2-42.2,58.7-43.8,103.4h104.6c1.3-14.2,5.7-26.1,13.5-35.7,7.7-9.6,19.5-14.4,35.4-14.4s26.1,4.2,34.5,12.5c8.4,8.4,12.5,20,12.5,35.1s-6.6,31.8-19.7,39.2c-13.2,7.3-30.4,11-51.7,11h-20v87.1h20c28,0,48.3,4.5,61.1,13.5,12.7,9,19.1,23.5,19.1,43.5s-4.5,27.9-13.5,37.3c-9,9.4-21.6,14.1-37.9,14.1s-33.8-5.3-43.8-16c-10-10.6-15.3-25.2-15.7-43.5h-104c1.7,49.7,17.4,86.9,47.3,111.5,29.9,24.6,69.8,37,120,37s58.4-5.6,81.1-16.9c22.8-11.3,40.1-26.8,52-46.7,11.9-19.8,17.9-42.7,17.9-68.6s-6.9-52.4-20.7-70.8Z"/>
    </g>
    <g class="st2">
      <path d="M914.9,1354.5c-20.5-14.1-46.3-21.1-77.3-21.1s-33.5,2.9-48.4,8.7c-14.9,5.8-26.5,13.3-34.8,22.4v-85.7h193.7v-93.1h-290v270.1h102.5c2.9-11.2,8.9-20.2,18-27,9.1-6.8,20.7-10.2,34.8-10.2s33.5,5.4,43.5,16.1c9.9,10.8,14.9,26.3,14.9,46.6s-4.8,37.3-14.3,49.7c-9.5,12.4-24,18.6-43.5,18.6s-29.6-4.2-39.1-12.7c-9.5-8.5-15.5-19.1-18-32h-103.7c1.2,26.5,8.5,49.9,21.7,70.2,13.2,20.3,32.1,36.1,56.5,47.5,24.4,11.4,53.2,17.1,86.3,17.1,49.7,0,88.2-14.2,115.5-42.5,27.3-28.4,41-66.8,41-115.2s-4.8-50.3-14.3-72.6c-9.5-22.4-24.5-40.6-45-54.6Z"/>
      <path d="M1305.1,1246.4c-27.8-40.7-72.6-61.1-134.4-61.1s-106.6,20.4-134.4,61.1c-27.8,40.7-41.7,95.7-41.7,165.1s13.9,124.3,41.7,165.1c27.8,40.7,72.6,61.1,134.4,61.1s106.6-20.4,134.4-61.1c27.8-40.7,41.7-95.7,41.7-165.1s-13.9-124.3-41.7-165.1ZM1227.8,1504.5c-9.2,21.9-28.2,32.9-57,32.9s-47.8-11-57-32.9c-9.2-21.9-13.8-52.9-13.8-93s4.6-71.1,13.8-93c9.2-21.9,28.2-32.9,57-32.9s47.8,11,57,32.9c9.2,21.9,13.8,52.9,13.8,93s-4.6,71.1-13.8,93Z"/>
    </g>
    <g class="st2">
      <path d="M854.7,1346.3c-20.9,0-40,4.2-57.3,12.5-17.3,8.4-30.6,19.8-39.8,34.5.4-44.7,5.8-77.4,16.3-98,10.4-20.7,27.6-31,51.4-31s27.3,3.9,35.7,11.6c8.3,7.7,14.2,19.3,17.5,34.8h99.6c-2.1-23.8-8.7-45.7-19.7-65.8-11.1-20-27.4-36.2-48.9-48.5-21.5-12.3-47.9-18.5-79.2-18.5-58.5,0-101,19.3-127.5,57.9-26.5,38.6-39.8,97.6-39.8,177s12.5,133.5,37.6,173.8c25.1,40.3,69.7,60.4,134.1,60.4s60-6.5,83.6-19.4c23.6-12.9,41.5-30.9,53.9-53.9,12.3-23,18.5-49.7,18.5-80.2,0-46.4-12.4-82.5-37.3-108.4-24.9-25.9-57.7-38.8-98.7-38.8ZM873.8,1539.5c-10.6,11.1-25.2,16.6-43.5,16.6s-36.2-5.6-47.3-16.9c-11.1-11.3-16.6-26.9-16.6-47s6-34.8,17.9-45.4c11.9-10.6,26.8-16,44.8-16s34.7,5.6,45.1,16.9c10.4,11.3,15.7,26.7,15.7,46.4s-5.3,34.4-16,45.4Z"/>
      <path d="M1299.7,1385.1c-24.9-25.9-57.7-38.8-98.7-38.8s-40,4.2-57.3,12.5c-17.3,8.4-30.6,19.8-39.8,34.5.4-44.7,5.8-77.4,16.3-98,10.4-20.7,27.6-31,51.4-31s27.3,3.9,35.7,11.6c8.3,7.7,14.2,19.3,17.5,34.8h99.6c-2.1-23.8-8.7-45.7-19.7-65.8-11.1-20-27.4-36.2-48.9-48.5-21.5-12.3-47.9-18.5-79.2-18.5-58.5,0-101,19.3-127.5,57.9-26.5,38.6-39.8,97.6-39.8,177s12.5,133.5,37.6,173.8c25.1,40.3,69.7,60.4,134.1,60.4s60-6.5,83.6-19.4c23.6-12.9,41.5-30.9,53.9-53.9,12.3-23,18.5-49.7,18.5-80.2,0-46.4-12.4-82.5-37.3-108.4ZM1220.1,1539.5c-10.6,11.1-25.2,16.6-43.5,16.6s-36.2-5.6-47.3-16.9c-11.1-11.3-16.6-26.9-16.6-47s6-34.8,17.9-45.4c11.9-10.6,26.8-16,44.8-16s34.7,5.6,45.1,16.9c10.4,11.3,15.7,26.7,15.7,46.4s-5.3,34.4-16,45.4Z"/>
    </g>
    <g class="st2">
      <polygon points="678 1277.4 872.2 1277.4 704.9 1638.2 817 1638.2 979.9 1265.5 979.9 1186.6 678 1186.6 678 1277.4"/>
      <path d="M1307.8,1409c-9.5-22.2-24.4-40.4-44.8-54.4-20.4-14-46-21-76.9-21s-33.4,2.9-48.2,8.6c-14.8,5.8-26.4,13.2-34.6,22.2v-85.3h192.8v-92.7h-288.5v268.8h101.9c2.9-11.1,8.9-20.1,17.9-26.9,9.1-6.8,20.6-10.2,34.6-10.2s33.4,5.4,43.2,16.1c9.9,10.7,14.8,26.2,14.8,46.3s-4.7,37.1-14.2,49.4c-9.5,12.4-23.9,18.5-43.2,18.5s-29.5-4.2-38.9-12.7c-9.5-8.4-15.4-19-17.9-31.8h-103.2c1.2,26.4,8.4,49.6,21.6,69.8,13.2,20.2,31.9,35.9,56.2,47.3,24.3,11.3,52.9,17,85.9,17,49.4,0,87.7-14.1,114.9-42.3,27.2-28.2,40.8-66.4,40.8-114.6s-4.7-50-14.2-72.3Z"/>
    </g>
    <g class="st2">
      <path d="M925.7,1438.7c30.1-37,45.1-76.7,45.1-119.3s-5.3-47.8-16-68.3c-10.6-20.5-27.2-36.6-49.5-48.5-22.3-11.9-50.2-17.9-83.6-17.9s-55,5.6-78.6,16.9c-23.6,11.3-42.6,28.8-57,52.6-14.4,23.8-22,53.5-22.9,89h103.4c1.3-45.5,17.7-68.3,49.5-68.3s27,4.6,34.8,13.8c7.7,9.2,11.6,22.3,11.6,39.5s-7.9,42-23.8,64.5c-15.9,22.6-35.5,44.4-58.9,65.5-23.4,21.1-55.1,48.3-95.2,81.7-.8.4-7.5,5.9-20,16.3v79.6h314.5v-87.1h-169.1c47.2-36.3,85.8-73,115.9-109.9Z"/>
      <path d="M1295.1,1248.9c-27.8-40.7-72.6-61.1-134.4-61.1s-106.6,20.4-134.4,61.1c-27.8,40.7-41.7,95.7-41.7,165.1s13.9,124.3,41.7,165.1c27.8,40.7,72.6,61.1,134.4,61.1s106.6-20.4,134.4-61.1c27.8-40.7,41.7-95.7,41.7-165.1s-13.9-124.3-41.7-165.1ZM1217.7,1507c-9.2,21.9-28.2,32.9-57,32.9s-47.8-11-57-32.9c-9.2-21.9-13.8-52.9-13.8-93s4.6-71.1,13.8-93c9.2-21.9,28.2-32.9,57-32.9s47.8,11,57,32.9c9.2,21.9,13.8,52.9,13.8,93s-4.6,71.1-13.8,93Z"/>
    </g>
  </g>
</svg>